<svg width="24" height="24" viewBox="0 0 24 24" fill="none" xmlns="http://www.w3.org/2000/svg">
<path d="M11.5001 3L10.4213 4.88836H11.1907V14.5411L9.22657 12.6614C9.10009 12.502 9.01084 12.2925 9.00608 12.077C9.00608 11.2062 9.00557 10.6893 9.0054 10.4987C9.36937 10.3698 9.63185 10.0232 9.63185 9.61113C9.63185 9.08974 9.21314 8.66627 8.69702 8.66627C8.18107 8.66644 7.7627 9.08974 7.7627 9.61113C7.7627 10.0232 8.02518 10.3698 8.38881 10.4987L8.3883 12.059C8.3883 12.4816 8.61763 12.9248 8.88691 13.2065C8.87875 13.1986 8.87008 13.1908 8.88691 13.2068C8.89354 13.2128 10.9706 15.2009 10.9706 15.2009C11.0971 15.3604 11.1858 15.5695 11.1906 15.7849V16.8766C10.4773 17.0216 9.93955 17.6584 9.93955 18.4227C9.93955 19.294 10.6379 20 11.4996 20C12.3614 20 13.0601 19.294 13.0601 18.4227C13.0601 17.6584 12.5222 17.0216 11.8078 16.8766V15.8037C11.8078 15.8008 11.8078 15.7983 11.8078 15.7956V13.4227C11.8129 13.208 11.9019 12.9989 12.0283 12.8394C12.0283 12.8394 14.1054 10.852 14.1125 10.8455C14.1289 10.8295 14.1202 10.8377 14.1125 10.8455C14.3813 10.5633 14.6106 10.1203 14.6106 9.69732L14.6105 8.19418H15.2369V6.30531H13.3683V8.19435H13.994C13.994 8.19435 13.9929 8.59011 13.9929 9.71585C13.9883 9.93107 13.8994 10.1409 13.7724 10.3005L11.8078 12.1803V4.88836H12.5788L11.5001 3Z" fill="black"/>
</svg>
