<svg width="48" height="48" viewBox="0 0 48 48" fill="none" xmlns="http://www.w3.org/2000/svg">
<path d="M31 31.5C30.6 31.5 30.2 31.1 30.2 30.7V29C30.2 28.3 29.9 27.6 29.4 27.1C28.9 26.6 28.2 26.3 27.5 26.3H20.5C19.8 26.3 19.1 26.6 18.6 27.1C18.1 27.6 17.8 28.3 17.8 29V30.7C17.8 31.1 17.4 31.5 17 31.5C16.6 31.5 16.2 31.1 16.2 30.7V29C16.2 27.9 16.7 26.8 17.5 26C18.3 25.2 19.4 24.7 20.5 24.7H27.5C28.6 24.7 29.7 25.1 30.5 26C31.3 26.8 31.8 27.9 31.8 29V30.7C31.8 31.2 31.4 31.5 31 31.5ZM24 22.8C21.6 22.8 19.7 20.9 19.7 18.5C19.7 16.1 21.6 14.2 24 14.2C26.4 14.2 28.3 16.1 28.3 18.5C28.3 20.9 26.4 22.8 24 22.8ZM24 15.8C22.5 15.8 21.3 17 21.3 18.5C21.3 20 22.5 21.2 24 21.2C25.5 21.2 26.7 20 26.7 18.5C26.7 17 25.5 15.8 24 15.8Z" />
</svg>
