<svg width="32" height="32" viewBox="0 0 32 32" fill="none" xmlns="http://www.w3.org/2000/svg">
<path d="M16.0537 6.83472C11.4275 6.83472 7.65283 10.6094 7.65283 15.2355C7.65283 19.8617 11.4275 23.6364 16.0537 23.6364C20.6798 23.6364 24.4545 19.8617 24.4545 15.2355C24.4545 10.6094 20.6798 6.83472 16.0537 6.83472ZM16.0537 8.31054C19.0479 8.31054 21.6022 10.2263 22.5671 12.9083C21.1623 12.4968 18.7499 11.9433 16.0537 11.9433C13.3716 11.9433 10.9592 12.4826 9.54018 12.8941C10.5051 10.2263 13.0594 8.31054 16.0537 8.31054ZM9.59694 17.7047C10.3349 17.5202 11.5269 17.3641 12.3783 17.9743C13.2014 18.5703 13.6129 19.8475 13.5703 21.6923C11.7397 20.9827 10.2923 19.5353 9.59694 17.7047ZM15.0177 22.0754C15.1313 19.5069 14.5495 17.7189 13.2297 16.7823C11.8958 15.8174 10.2071 16.0302 9.2138 16.2856C9.15703 15.9451 9.12865 15.6045 9.12865 15.2497C9.12865 15.0227 9.14284 14.7956 9.15703 14.5686C10.1788 14.2422 12.9459 13.4333 16.0537 13.4333C19.1898 13.4333 21.9711 14.2564 22.9503 14.5828C22.9645 14.8098 22.9787 15.0227 22.9787 15.2497C22.9787 15.6045 22.9503 15.9451 22.8935 16.2856C21.9002 16.0302 20.2115 15.8315 18.8776 16.7823C17.5721 17.7189 16.976 19.5069 17.0896 22.0754C16.749 22.1322 16.4084 22.1605 16.0537 22.1605C15.6989 22.1605 15.3583 22.1322 15.0177 22.0754ZM18.537 21.6923C18.4944 19.8475 18.906 18.5703 19.729 17.9743C20.5946 17.3499 21.7867 17.506 22.5104 17.7047C21.815 19.5353 20.3676 20.9827 18.537 21.6923Z" fill="#333333"/>
<path d="M16.0539 17.0804C16.7592 17.0804 17.331 16.5086 17.331 15.8033C17.331 15.0979 16.7592 14.5261 16.0539 14.5261C15.3485 14.5261 14.7767 15.0979 14.7767 15.8033C14.7767 16.5086 15.3485 17.0804 16.0539 17.0804Z" fill="#333333"/>
</svg>
