<?xml version="1.0" encoding="utf-8"?>
<!-- Generator: Adobe Illustrator 21.0.0, SVG Export Plug-In . SVG Version: 6.00 Build 0)  -->
<svg version="1.1"
	 id="Layer_2" inkscape:version="0.48.4 r9939" sodipodi:docname="Google_Play_logo.svg" xmlns:cc="http://creativecommons.org/ns#" xmlns:dc="http://purl.org/dc/elements/1.1/" xmlns:inkscape="http://www.inkscape.org/namespaces/inkscape" xmlns:rdf="http://www.w3.org/1999/02/22-rdf-syntax-ns#" xmlns:sodipodi="http://sodipodi.sourceforge.net/DTD/sodipodi-0.dtd" xmlns:svg="http://www.w3.org/2000/svg"
	 xmlns="http://www.w3.org/2000/svg" xmlns:xlink="http://www.w3.org/1999/xlink" x="0px" y="0px" width="164px" height="60px"
	 viewBox="0 0 164 60" style="enable-background:new 0 0 164 60;" xml:space="preserve">
<style type="text/css">
	.st0{fill:#FFFFFF;}
	.st1{fill:#FFD400;}
	.st2{fill:#FF3333;}
	.st3{fill:#48FF48;}
	.st4{fill:#3BCCFF;}
</style>
<path d="M153,59H11C5.5,59,1,54.5,1,49V11C1,5.5,5.5,1,11,1h142c5.5,0,10,4.5,10,10v38C163,54.5,158.5,59,153,59z"/>
<path class="st0" d="M62.1,21.9c-0.3,1.4-1.3,2.3-3,2.3c-2.2,0-3.4-1.6-3.4-3.7c0-2.1,1.2-3.7,3.4-3.7c1.7,0,2.7,0.9,2.9,2.2h-1.2
	c-0.2-0.7-0.8-1.2-1.7-1.2c-1.6,0-2.2,1.2-2.2,2.6c0,1.4,0.7,2.7,2.2,2.7c1,0,1.6-0.5,1.8-1.3H62.1z M67.5,20.9h-2.1V24h-1.2v-7.1
	h1.2v2.9h2.1l1.5-2.9h1.2l-1.7,3.4l1.8,3.7H69L67.5,20.9z M76.8,23.3h-0.3c-0.4,0.5-1.2,0.9-2.2,0.9c-1.6,0-2.5-1.1-2.5-2.3
	c0-1.1,0.7-2.3,2.7-2.3h2.3v-0.3c0-0.9-0.5-1.5-1.7-1.5c-1.1,0-1.6,0.4-1.6,1h-1.2c0.1-1.3,1.2-2.1,2.8-2.1c1.8,0,2.9,0.9,2.9,2.4
	V24h-1.1V23.3z M76.7,21.1v-0.6h-2.1c-1.2,0-1.7,0.5-1.7,1.3c0,0.8,0.6,1.3,1.6,1.3C75.8,23.1,76.7,22.3,76.7,21.1z M81.2,16.9v2
	c0,0.7,0,1.4,1.8,1.4c0.7,0,1.2-0.1,1.8-0.2v-3.2h1.2V24h-1.2v-2.8c-0.6,0.1-1.4,0.2-2,0.2c-2.6,0-2.7-1.2-2.7-2.4v-2.1H81.2z
	 M92.9,23.3h-0.3c-0.4,0.5-1.2,0.9-2.2,0.9c-1.6,0-2.5-1.1-2.5-2.3c0-1.1,0.7-2.3,2.7-2.3h2.3v-0.3c0-0.9-0.5-1.5-1.7-1.5
	c-1.1,0-1.6,0.4-1.6,1h-1.2c0.1-1.3,1.2-2.1,2.8-2.1c1.8,0,2.9,0.9,2.9,2.4V24h-1.1V23.3z M92.8,21.1v-0.6h-2.1
	c-1.2,0-1.7,0.5-1.7,1.3c0,0.8,0.6,1.3,1.6,1.3C91.8,23.1,92.8,22.3,92.8,21.1z M95.6,16.9h6.1v1h-2.4v6h-1.2v-6h-2.5V16.9z
	 M104.7,19.3h2.1c1.7,0,2.7,0.9,2.7,2.3c0,1.5-0.9,2.4-2.7,2.4h-3.3v-7.1h1.2V19.3z M106.7,23c1.2,0,1.6-0.5,1.6-1.3
	c0-0.8-0.4-1.3-1.6-1.3h-1.9V23H106.7z M115.6,24v-7.1h1.2v5.5h0.3l3.1-5.5h1.7V24h-1.2v-5.5h-0.3l-3.2,5.5H115.6z M127,17.8
	c-1,0-1.5,0.3-1.7,1.1h-1.1c0.1-1.3,1.2-2.1,2.9-2.1c1.8,0,2.7,0.9,2.7,2c0,0.8-0.4,1.3-0.8,1.4v0.3c0.5,0.2,1,0.6,1,1.6
	c0,1.2-1,2.1-2.9,2.1c-1.9,0-3-0.9-3.2-2.2h1.1c0.3,0.9,1.1,1.1,2,1.1c1,0,1.7-0.4,1.7-1.1c0-0.7-0.4-1.1-1.6-1.1H126v-1h1.2
	c1,0,1.4-0.5,1.4-1C128.6,18.2,127.9,17.8,127,17.8z M65.6,36v1.3c0,2.5-1.3,4.9-4.7,4.9s-5.2-2.3-5.2-5.5c0-3.2,1.8-5.5,5.2-5.5
	c2.4,0,4,1.3,4.4,3.3H63c-0.2-0.8-0.9-1.3-2.1-1.3c-1.9,0-2.9,1.5-2.9,3.6c0,2,1,3.6,2.9,3.6c1.6,0,2.4-1,2.4-2.3h-2.5V36H65.6z
	 M75.4,38.1c0,2.4-1.5,4-4,4c-2.4,0-4-1.6-4-4c0-2.4,1.6-4,4-4C73.8,34.1,75.4,35.7,75.4,38.1z M73.3,38.1c0-1.2-0.6-2.3-1.9-2.3
	c-1.3,0-1.9,1.1-1.9,2.3c0,1.2,0.6,2.3,1.9,2.3C72.7,40.5,73.3,39.4,73.3,38.1z M85,38.1c0,2.4-1.5,4-4,4c-2.4,0-4-1.6-4-4
	c0-2.4,1.6-4,4-4C83.5,34.1,85,35.7,85,38.1z M82.9,38.1c0-1.2-0.6-2.3-1.9-2.3c-1.3,0-1.9,1.1-1.9,2.3c0,1.2,0.6,2.3,1.9,2.3
	C82.3,40.5,82.9,39.4,82.9,38.1z M94.5,34.3v7.3c0,2.2-1.6,3.5-3.9,3.5c-2.1,0-3.5-0.9-3.7-2.6H89c0.1,0.6,0.6,0.9,1.6,0.9
	c1.3,0,1.8-0.9,1.8-2.1V41H92c-0.3,0.5-0.9,0.9-2,0.9c-2.1,0-3.4-1.6-3.4-3.9c0-2.3,1.3-3.9,3.4-3.9c1.1,0,1.8,0.4,2.1,0.9h0.4v-0.7
	H94.5z M92.5,38c0-1.2-0.6-2.1-1.9-2.1c-1.2,0-1.8,0.9-1.8,2.1s0.7,2.1,1.8,2.1C91.8,40.1,92.5,39.2,92.5,38z M99.1,31.1V42H97V31.1
	H99.1z M108.8,38.4h-5.5c0.1,1.3,0.7,2.1,1.9,2.1c0.8,0,1.2-0.3,1.4-0.8h2.1c-0.3,1.5-1.5,2.5-3.6,2.5c-2.4,0-3.9-1.6-3.9-4.1
	s1.5-4,3.9-4c2.3,0,3.7,1.6,3.7,3.7V38.4z M103.4,37h3.3c-0.1-0.8-0.6-1.3-1.6-1.3C104.1,35.7,103.6,36.2,103.4,37z M120.4,31.3
	c2.5,0,3.9,1.3,3.9,3.4c0,2.2-1.4,3.5-3.9,3.5h-2.7V42h-2.2V31.3H120.4z M120.1,36.2c1.4,0,1.9-0.5,1.9-1.5c0-1-0.5-1.5-1.9-1.5
	h-2.3v2.9H120.1z M128.5,31.1V42h-2.1V31.1H128.5z M135.8,41.3h-0.4c-0.5,0.5-1.1,0.9-2.2,0.9c-1.7,0-2.7-1.2-2.7-2.6
	c0-1.2,0.9-2.6,3.1-2.6h2.1v-0.2c0-0.8-0.5-1.2-1.4-1.2c-0.8,0-1.2,0.3-1.3,0.8h-2.1c0-1.5,1.4-2.4,3.3-2.4c2.1,0,3.5,0.8,3.5,2.9v5
	h-1.9V41.3z M135.7,38.9v-0.5H134c-0.9,0-1.4,0.3-1.4,1c0,0.7,0.5,1.1,1.4,1.1C135,40.5,135.7,39.9,135.7,38.9z M140.9,45l1.6-3.8
	l-3.3-6.9h2.2l1.9,4.1h0.4l1.8-4.1h2.1L143,45H140.9z"/>
<g>
	<path id="path16" inkscape:connector-curvature="0" class="st1" d="M36.6,35.1c3.8-2.1,6.7-3.7,6.9-3.8c0.8-0.4,1.6-1.5,0-2.4
		c-0.5-0.3-3.3-1.8-6.9-3.8l-5,5L36.6,35.1z"/>
	<path id="path23" inkscape:connector-curvature="0" class="st2" d="M31.7,30.2l-15.9,16c0.4,0,0.8,0,1.3-0.3
		c1-0.6,12.1-6.6,19.5-10.7L31.7,30.2L31.7,30.2z"/>
	<path id="path30" inkscape:connector-curvature="0" class="st3" d="M31.7,30.2l5-5c0,0-18.4-10.1-19.5-10.6
		c-0.4-0.2-0.9-0.3-1.3-0.2L31.7,30.2z"/>
	<path id="path37" inkscape:connector-curvature="0" class="st4" d="M31.7,30.2L15.8,14.3c-0.6,0.1-1.2,0.7-1.2,1.9
		c0,1.9,0,26.6,0,28.1c0,1.1,0.4,1.8,1.2,1.9L31.7,30.2z"/>
</g>
</svg>
