<svg width="56" height="56" viewBox="0 0 56 56" fill="none" xmlns="http://www.w3.org/2000/svg">
<path d="M43 10C44.7 10 46 11.3 46 13V43C46 44.7 44.7 46 43 46H13C11.3 46 10 44.7 10 43V13C10 11.3 11.3 10 13 10H43ZM43 8H13C10.3 8 8 10.3 8 13V43C8 45.8 10.3 48 13 48H43C45.8 48 48 45.7 48 43V13C48 10.3 45.8 8 43 8ZM25 29H18C16.3 29 15 27.7 15 26V18C15 16.3 16.3 15 18 15H25C26.7 15 28 16.3 28 18V26C28 27.7 26.7 29 25 29ZM18 17C17.4 17 17 17.4 17 18V26C17 26.6 17.4 27 18 27H25C25.6 27 26 26.6 26 26V18C26 17.4 25.6 17 25 17H18ZM41 16C41 15.4 40.5 15 40 15H33C32.5 15 32 15.4 32 16C32 16.5 32.4 17 33 17H40C40.5 17 41 16.6 41 16ZM41 22C41 21.4 40.5 21 40 21H33C32.5 21 32 21.4 32 22C32 22.5 32.4 23 33 23H40C40.5 23 41 22.6 41 22ZM41 28C41 27.4 40.5 27 40 27H33C32.5 27 32 27.4 32 28C32 28.5 32.4 29 33 29H40C40.5 29 41 28.6 41 28ZM41 34C41 33.4 40.5 33 40 33H15C14.5 33 14 33.4 14 34C14 34.5 14.4 35 15 35H40C40.5 35 41 34.6 41 34ZM41 40C41 39.5 40.5 39 40 39H15C14.5 39 14 39.5 14 40C14 40.5 14.4 41 15 41H40C40.5 41 41 40.5 41 40Z" fill="#333333"/>
</svg>
