<svg width="56" height="56" viewBox="0 0 56 56" fill="none" xmlns="http://www.w3.org/2000/svg">
<circle cx="28" cy="28" r="27" stroke="#333333" stroke-width="2"/>
<path d="M41.0626 17.7071C40.6721 17.3166 40.0389 17.3166 39.6484 17.7071L21.7073 35.6482C21.3167 36.0387 21.3167 36.6719 21.7073 37.0624C22.0978 37.453 22.7309 37.453 23.1215 37.0624L41.0626 19.1213C41.4531 18.7308 41.4531 18.0976 41.0626 17.7071Z"/>
<path d="M14.707 28.7071C15.0975 28.3166 15.7306 28.3166 16.1212 28.7071L23.0623 35.6482C23.4528 36.0387 23.4528 36.6719 23.0623 37.0624C22.6718 37.453 22.0386 37.453 21.6481 37.0624L14.707 30.1213C14.3164 29.7308 14.3164 29.0976 14.707 28.7071Z"/>
</svg>
