<svg width="49" height="34" viewBox="0 0 49 34" fill="none" xmlns="http://www.w3.org/2000/svg">
<path d="M1.7 34C1.2 34 0.8 33.7 0.7 33.2L0 29C0 28.7 0 28.4 0.2 28.2C0.4 28 0.7 27.8 1 27.8H3.3V2.8C3.3 1.3 4.5 0 6.1 0H42.9C44.5 0 45.7 1.3 45.7 2.8V27.8H48C48.3 27.8 48.6 27.9 48.7 28.1C49 28.4 49 28.7 49 29L48.3 33.2C48.2 33.7 47.8 34 47.3 34H1.7ZM2.5 32.1H46.5L46.9 29.8H2.1L2.5 32.1ZM6.1 1.9C5.6 1.9 5.2 2.3 5.2 2.8V27.8H43.8V2.8C43.8 2.3 43.4 1.9 42.9 1.9H6.1ZM24.5 5.9C23.8 5.9 23.2 5.3 23.2 4.6C23.2 3.9 23.8 3.3 24.5 3.3C25.2 3.3 25.8 3.9 25.8 4.6C25.8 5.4 25.2 5.9 24.5 5.9Z" fill="#333333"/>
</svg>
