<svg width="37" height="37" viewBox="0 0 37 37" fill="none" xmlns="http://www.w3.org/2000/svg">
<path d="M2.7 37C1.2 37 0 35.8 0 34.3V5.1C0 3.6 1.2 2.4 2.7 2.4H5.8V1C5.8 0.5 6.2 0 6.8 0C7.4 0 7.8 0.4 7.8 1V2.4H29.2V1C29.2 0.5 29.6 0 30.2 0C30.7 0 31.2 0.4 31.2 1V2.4H34.3C35.8 2.4 37 3.6 37 5.1V34.3C37 35.8 35.8 37 34.3 37H2.7ZM2 34.3C2 34.7 2.3 35 2.7 35H34.2C34.6 35 35 34.7 35 34.2V11.2H2V34.3ZM2.7 4.3C2.3 4.3 2 4.6 2 5.1V9.4H35V5.1C35 4.7 34.7 4.3 34.2 4.3H31.1V5.7C31.1 6.2 30.7 6.7 30.1 6.7C29.6 6.7 29.1 6.3 29.1 5.7V4.3H7.8V5.7C7.8 6.2 7.4 6.7 6.8 6.7C6.2 6.7 5.8 6.3 5.8 5.7V4.3H2.7ZM17.3 28.8C17 28.8 16.8 28.7 16.6 28.5L12 23.9C11.8 23.7 11.7 23.5 11.7 23.2C11.7 22.9 11.8 22.7 12 22.5C12.2 22.3 12.4 22.2 12.7 22.2C13 22.2 13.2 22.3 13.4 22.5L17.3 26.4L24.8 17.8C25 17.6 25.3 17.5 25.5 17.5C25.7 17.5 26 17.6 26.1 17.7C26.5 18.1 26.5 18.7 26.2 19.1L18 28.4C17.9 28.7 17.6 28.8 17.3 28.8Z" fill="#333333"/>
</svg>
