<svg width="41" height="42" viewBox="0 0 41 42" fill="none" xmlns="http://www.w3.org/2000/svg">
<path d="M21.6 42C18.7 42 16.3 39.7 16.3 36.8C16.3 33.9 18.7 31.6 21.6 31.6C24.1 31.6 26.3 33.3 26.8 35.7V35.8H30.2C32.4 35.8 34.3 34.3 34.9 32.3L35 32.1H31.7V15.9H34V15.2C34 7.9 28 1.9 20.6 1.9C13.2 1.9 7.1 7.9 7.1 15.2V15.9H9.4V32H4.4C2 32 0 30 0 27.6V20.2C0 17.8 2 15.8 4.4 15.8H5.2V15.1C5.2 6.8 12.1 0 20.5 0C28.9 0 35.9 6.8 35.9 15.2V15.9H36.7C37.9 15.9 39 16.4 39.8 17.2C40.6 18 41 19.1 41 20.3V27.7C41 30 39.3 31.8 37 32.1H36.9V32.2C36.4 35.4 33.5 37.7 30.3 37.7H26.9V37.8C26.3 40.3 24.2 42 21.6 42ZM21.7 33.5C19.9 33.5 18.4 35 18.4 36.8C18.4 38.6 19.9 40.1 21.7 40.1C23.5 40.1 25 38.6 25 36.8C25 35 23.5 33.5 21.7 33.5ZM33.6 30.2H36.7C38.1 30.2 39.2 29.1 39.2 27.7V20.3C39.2 18.9 38.1 17.8 36.7 17.8H33.6V30.2ZM4.4 17.8C3 17.8 1.9 18.9 1.9 20.3V27.7C1.9 29.1 3 30.2 4.4 30.2H7.5V17.8H4.4Z" fill="#333333"/>
</svg>
