<svg width="44" height="37" viewBox="0 0 44 37" fill="none" xmlns="http://www.w3.org/2000/svg">
<path d="M21.9998 0.0378418C13.7998 0.0378418 6.29982 2.83779 0.399824 7.23779C-0.000176042 7.53779 -0.100176 8.23782 0.199824 8.63782C0.499824 9.03782 1.19982 9.13783 1.59982 8.83783C7.09982 4.63783 14.1998 2.03784 21.9998 2.03784C29.7998 2.03784 36.8998 4.63783 42.3998 8.83783C42.7998 9.13783 43.4998 9.03782 43.7998 8.63782C44.0998 8.23782 43.9998 7.53779 43.5998 7.23779C37.6998 2.73779 30.1998 0.0378418 21.9998 0.0378418ZM21.9998 9.53784C16.0998 9.53784 10.5998 11.3378 6.39982 14.7378C5.89982 15.0378 5.79982 15.7378 6.19982 16.2378C6.59982 16.6378 7.29982 16.7378 7.69982 16.3378C11.5998 13.2378 16.5998 11.5378 22.0998 11.5378C27.5998 11.5378 32.5998 13.1378 36.4998 16.3378C36.8998 16.7378 37.5998 16.7378 37.9998 16.2378C38.3998 15.8378 38.1998 15.0378 37.7998 14.7378C33.3998 11.2378 27.8998 9.53784 21.9998 9.53784ZM21.9998 18.5378C18.3998 18.5378 14.9998 19.6378 12.3998 21.7378C11.9998 22.0378 11.8998 22.7378 12.1998 23.1378C12.4998 23.5378 13.1998 23.6378 13.5998 23.3378C15.7998 21.5378 18.7998 20.5378 21.9998 20.5378C25.1998 20.5378 28.0998 21.5378 30.3998 23.3378C30.7998 23.6378 31.4998 23.5378 31.7998 23.1378C32.0998 22.7378 31.9998 22.0378 31.5998 21.7378C28.9998 19.6378 25.5998 18.5378 21.9998 18.5378ZM21.9998 27.0378C19.1998 27.0378 16.9998 29.3378 16.9998 32.0378C16.9998 34.7378 19.2998 37.0378 21.9998 37.0378C24.6998 37.0378 26.9998 34.7378 26.9998 32.0378C26.9998 29.3378 24.7998 27.0378 21.9998 27.0378ZM21.9998 29.0378C23.6998 29.0378 24.9998 30.3378 24.9998 32.0378C24.9998 33.7378 23.6998 35.0378 21.9998 35.0378C20.2998 35.0378 18.9998 33.7378 18.9998 32.0378C18.9998 30.3378 20.2998 29.0378 21.9998 29.0378Z" fill="#333333"/>
</svg>
