<svg width="37" height="37" viewBox="0 0 37 37" fill="none" xmlns="http://www.w3.org/2000/svg">
<path d="M36.2 36.9999C35.8 36.9999 35.5 36.7999 35.4 36.3999L31.7 25.1999C31.4 24.3999 30.4 23.6999 29.6 23.6999H21.4L23.8 31.3999C23.9 31.6999 23.8 31.9999 23.6 32.1999L19.2 36.5999C19 36.7999 18.8 36.7999 18.6 36.7999C18.4 36.7999 18.2 36.6999 18 36.5999L13.6 32.1999C13.4 31.9999 13.3 31.6999 13.4 31.3999L15.8 23.6999H7.5C6.6 23.6999 5.7 24.3999 5.4 25.1999L1.6 36.3999C1.5 36.7999 1.2 36.9999 0.8 36.9999C0.7 36.9999 0.6 36.9999 0.5 36.9999C0.3 36.8999 0.1 36.7999 0 36.5999C0 36.2999 0 36.0999 0 35.8999L3.7 24.7999C4.2 23.2999 5.8 22.0999 7.4 22.0999H29.5C31.1 22.0999 32.7 23.2999 33.2 24.7999L37 35.8999C37.1 36.0999 37.1 36.2999 37 36.4999C36.9 36.6999 36.7 36.7999 36.5 36.8999C36.3 36.9999 36.2 36.9999 36.2 36.9999ZM15 31.4999L18.5 34.9999L22 31.4999L19.6 23.6999H17.5L15 31.4999ZM8.5 36.9999C8.4 36.9999 8.4 36.9999 8.3 36.9999C8.1 36.8999 7.9 36.7999 7.8 36.5999C7.7 36.3999 7.7 36.1999 7.7 35.9999L8.9 31.5999C9 31.1999 9.3 30.9999 9.7 30.9999C9.8 30.9999 9.8 30.9999 9.9 30.9999C10.1 31.0999 10.3 31.1999 10.4 31.3999C10.5 31.5999 10.5 31.7999 10.5 31.9999L9.3 36.3999C9.2 36.6999 8.9 36.9999 8.5 36.9999ZM28.5 36.9999C28.1 36.9999 27.8 36.6999 27.7 36.3999L26.5 31.9999C26.4 31.7999 26.5 31.5999 26.6 31.3999C26.7 31.1999 26.9 31.0999 27.1 30.9999C27.2 30.9999 27.2 30.9999 27.3 30.9999C27.7 30.9999 28 31.2999 28.1 31.5999L29.3 35.9999C29.4 36.1999 29.3 36.3999 29.2 36.5999C29.1 36.7999 28.9 36.8999 28.7 36.9999C28.6 36.9999 28.6 36.9999 28.5 36.9999ZM18.5 19.2999C13.2 19.2999 8.8 14.9999 8.8 9.5999C8.8 4.2999 13.1 -0.100098 18.5 -0.100098C23.8 -0.100098 28.2 4.1999 28.2 9.5999C28.2 14.9999 23.8 19.2999 18.5 19.2999ZM18.5 1.6999C14.1 1.6999 10.5 5.2999 10.5 9.6999C10.5 14.0999 14.1 17.6999 18.5 17.6999C22.9 17.6999 26.5 14.0999 26.5 9.6999C26.5 5.2999 22.9 1.6999 18.5 1.6999Z" fill="#333333"/>
</svg>
