<svg width="67" height="40" viewBox="0 0 67 40" fill="none" xmlns="http://www.w3.org/2000/svg">
<path d="M66.8 24.8C66.6 21.9 60.6 18.2 58.4 16.9L52.3 9.9C51.7 9 47.8 3.3 44.5 3.3H30.9C30.8 2.2 30.5 1.3 30 0.8C29.4 0.3 28.7 0 27.6 0H25.1C23.5 0 21.3 0 18.8 0C17.2 0 16 0.5 15.2 1.4C14.6 2.1 14.5 2.8 14.4 3.4H4.4C2 3.4 0 5.3 0 7.7V30.7C0 33.4 2.2 35.5 4.8 35.5H11.7C12.1 38 14.3 40 17 40C19.7 40 21.8 38.1 22.3 35.5H48.3C48.7 38 50.9 40 53.6 40C56.3 40 58.4 38.1 58.9 35.5H61.5C62.6 35.5 63.9 35.3 65.1 34.6C66 34.1 66.6 33.2 66.9 32.2C67.2 30.1 67 27.6 66.8 24.8ZM16.7 2.5C17.1 2 17.8 1.8 18.9 1.8C21.4 1.8 23.5 1.8 25.2 1.8H27.7C28.4 1.8 28.6 2 28.8 2.1C29 2.3 29.1 2.7 29.2 3.2H16.4C16.4 3 16.5 2.7 16.7 2.5ZM57.4 18.5C57.5 18.5 57.5 18.6 57.6 18.6H46.3V14.1H53.6L57.4 18.5ZM16.9 38.2C14.9 38.2 13.3 36.6 13.3 34.6C13.3 32.6 14.9 31 16.9 31C18.9 31 20.5 32.6 20.5 34.6C20.5 36.6 18.9 38.2 16.9 38.2ZM53.4 38.2C51.4 38.2 49.8 36.6 49.8 34.6C49.8 32.6 51.4 31 53.4 31C55.4 31 57 32.6 57 34.6C57 36.6 55.4 38.2 53.4 38.2ZM64.8 31.8C64.6 32.3 64.3 32.8 63.8 33.1C62.9 33.7 61.9 33.8 61.2 33.8H58.6C58.2 31.3 56 29.3 53.3 29.3C50.7 29.3 48.5 31.2 48 33.8H22C21.6 31.3 19.4 29.3 16.7 29.3C14.1 29.3 11.9 31.2 11.4 33.8H4.8C3.1 33.8 1.8 32.4 1.8 30.8V7.8C1.8 6.4 3 5.2 4.4 5.2H44.5C46.4 5.2 49.4 8.8 50.9 11.1L52 12.4H46.3C45.5 12.4 44.5 13 44.5 14V18.8C44.5 19.8 45.5 20.4 46.3 20.4H60.4C62.2 21.7 63.8 23 64.5 24H62.3V25.8H65C65.2 28 65.2 30.2 64.8 31.8ZM40.9 12.3H18.7H16.9H6.2C5.4 12.3 4.4 12.9 4.4 13.9V18.7C4.4 19.7 5.4 20.3 6.2 20.3H16.9H18.7H41C41.8 20.3 42.8 19.7 42.8 18.7V13.9C42.7 12.9 41.7 12.3 40.9 12.3ZM16.9 18.6H6.2V14.1H16.9V18.6ZM18.7 18.6V14.1H29.4V18.6H18.7ZM40.9 18.6H31.1V14.1H40.9V18.6ZM16.9 33.2C16.1 33.2 15.5 33.8 15.5 34.6C15.5 35.4 16.1 36 16.9 36C17.7 36 18.3 35.4 18.3 34.6C18.3 33.8 17.7 33.2 16.9 33.2ZM16.9 35C16.7 35 16.5 34.8 16.5 34.6C16.5 34.4 16.7 34.2 16.9 34.2C17.1 34.2 17.3 34.4 17.3 34.6C17.3 34.8 17.1 35 16.9 35ZM53.4 33.2C52.6 33.2 52 33.8 52 34.6C52 35.4 52.6 36 53.4 36C54.2 36 54.8 35.4 54.8 34.6C54.8 33.8 54.2 33.2 53.4 33.2ZM53.4 35C53.2 35 53 34.8 53 34.6C53 34.4 53.2 34.2 53.4 34.2C53.6 34.2 53.8 34.4 53.8 34.6C53.8 34.8 53.6 35 53.4 35Z" fill="#333333"/>
</svg>
