<svg width="72" height="72" viewBox="0 0 72 72" fill="none" xmlns="http://www.w3.org/2000/svg">
<path d="M19.7 54C18.2 54 17 52.8 17 51.3V22.1C17 20.6 18.2 19.4 19.7 19.4H22.8V18C22.8 17.5 23.2 17 23.8 17C24.4 17 24.8 17.4 24.8 18V19.4H46.2V18C46.2 17.5 46.6 17 47.2 17C47.7 17 48.2 17.4 48.2 18V19.4H51.3C52.8 19.4 54 20.6 54 22.1V51.3C54 52.8 52.8 54 51.3 54H19.7ZM19 51.3C19 51.7 19.3 52 19.7 52H51.2C51.6 52 52 51.7 52 51.2V28.2H19V51.3ZM19.7 21.3C19.3 21.3 19 21.6 19 22.1V26.4H52V22.1C52 21.7 51.7 21.3 51.2 21.3H48.1V22.7C48.1 23.2 47.7 23.7 47.1 23.7C46.6 23.7 46.1 23.3 46.1 22.7V21.3H24.8V22.7C24.8 23.2 24.4 23.7 23.8 23.7C23.2 23.7 22.8 23.3 22.8 22.7V21.3H19.7ZM34.3 45.8C34 45.8 33.8 45.7 33.6 45.5L29 40.9C28.8 40.7 28.7 40.5 28.7 40.2C28.7 39.9 28.8 39.7 29 39.5C29.2 39.3 29.4 39.2 29.7 39.2C30 39.2 30.2 39.3 30.4 39.5L34.3 43.4L41.8 34.8C42 34.6 42.3 34.5 42.5 34.5C42.7 34.5 43 34.6 43.1 34.7C43.5 35.1 43.5 35.7 43.2 36.1L35 45.4C34.9 45.7 34.6 45.8 34.3 45.8Z" fill="#333333"/>
</svg>
