<svg width="72" height="72" viewBox="0 0 72 72" fill="none" xmlns="http://www.w3.org/2000/svg">
<path d="M55.1 31.9H52.5V23.7C52.5 21.8 51 20.2 49.1 20.2H48.6V16.5C48.6 15.5 48.1 14.5 47.3 13.7C46.7 13.2 46 13 45.2 13C44.9 13 44.6 13 44.3 13.1L18.6 19.8C17 20.1 16 21.5 16 23.2V49.6C16 51.4 17.5 53 19.4 53H49C50.9 53 52.4 51.4 52.4 49.5V41.3H55C55.6 41.3 55.9 40.9 55.9 40.4V32.9C56 32.3 55.6 31.9 55.1 31.9ZM17.9 23.7C17.9 22.8 18.6 22.1 19.5 22.1H49C49.9 22.1 50.6 22.8 50.6 23.7V31.9H46.5C44.6 31.9 43.1 33.5 43.1 35.4V37.8C43.1 39.7 44.6 41.3 46.5 41.3H50.6V49.5C50.6 50.4 49.9 51.1 49 51.1H19.4C18.5 51.1 17.8 50.4 17.8 49.5V23.7H17.9ZM44.9 37.8V35.4C44.9 34.5 45.6 33.8 46.5 33.8H54.2V39.4H46.5C45.6 39.4 44.9 38.7 44.9 37.8ZM46.7 16.6V20.3H24.4L44.7 15C44.8 15 44.9 14.9 45.1 14.9C45.4 14.9 45.7 15 46 15.3C46.4 15.6 46.7 16.1 46.7 16.6ZM46.9 37.5C46.3 37.5 46 37.1 46 36.6C46 36.1 46.5 35.7 46.9 35.7H48.1C48.7 35.7 49 36.1 49 36.6C49 37.1 48.6 37.5 48.1 37.5H46.9Z" fill="black"/>
</svg>
