<svg width="72" height="72" viewBox="0 0 72 72" fill="none" xmlns="http://www.w3.org/2000/svg">
<path d="M36.6 56C33.7 56 31.3 53.7 31.3 50.8C31.3 47.9 33.7 45.6 36.6 45.6C39.1 45.6 41.3 47.3 41.8 49.7V49.8H45.2C47.4 49.8 49.3 48.3 49.9 46.3L50 46.1H46.7V29.9H49V29.2C49 21.9 43 15.9 35.6 15.9C28.2 15.9 22.1 21.9 22.1 29.2V29.9H24.4V46H19.4C17 46 15 44 15 41.6V34.2C15 31.8 17 29.8 19.4 29.8H20.2V29.1C20.2 20.8 27.1 14 35.5 14C43.9 14 50.9 20.8 50.9 29.2V29.9H51.7C52.9 29.9 54 30.4 54.8 31.2C55.6 32 56 33.1 56 34.3V41.7C56 44 54.3 45.8 52 46.1H51.9V46.2C51.4 49.4 48.5 51.7 45.3 51.7H41.9V51.8C41.3 54.3 39.2 56 36.6 56ZM36.7 47.5C34.9 47.5 33.4 49 33.4 50.8C33.4 52.6 34.9 54.1 36.7 54.1C38.5 54.1 40 52.6 40 50.8C40 49 38.5 47.5 36.7 47.5ZM48.6 44.2H51.7C53.1 44.2 54.2 43.1 54.2 41.7V34.3C54.2 32.9 53.1 31.8 51.7 31.8H48.6V44.2ZM19.4 31.8C18 31.8 16.9 32.9 16.9 34.3V41.7C16.9 43.1 18 44.2 19.4 44.2H22.5V31.8H19.4Z" fill="#333333"/>
</svg>
