<svg width="32" height="32" viewBox="0 0 32 32" fill="none" xmlns="http://www.w3.org/2000/svg">
<path d="M15.9044 22.1765C11.847 22.1765 7.98471 19.9498 4.41947 15.5614L4.0481 15.1161L4.39162 14.68C4.43804 14.6058 9.13598 8.17628 15.9322 8C16.0343 8 16.1272 8 16.22 8C20.2309 8 24.084 10.2267 27.6678 14.6244L28.0391 15.0975L27.677 15.5614C26.8507 16.6377 22.4128 22.0281 16.1829 22.1765H15.9044ZM16.2107 9.48445C16.1365 9.48445 16.0622 9.48445 15.9879 9.48445C10.9372 9.59579 7.04698 13.7523 5.97926 15.0326L5.93284 15.0883L5.97926 15.1439C9.13598 18.8458 12.4598 20.7199 15.8858 20.7199C15.9601 20.7199 16.0343 20.7199 16.1086 20.7199C20.9365 20.6086 24.7153 16.8047 26.1173 15.181L26.173 15.1254L26.1173 15.0604C22.9605 11.3586 19.6274 9.48445 16.2107 9.48445ZM16.0436 19.0592C13.8525 19.0592 12.0699 17.2778 12.0699 15.0883C12.0699 12.8987 13.8525 11.1174 16.0436 11.1174C18.2347 11.1174 20.0174 12.8987 20.0174 15.0883C20.0174 17.2778 18.2347 19.0592 16.0436 19.0592ZM16.0436 12.574C14.6602 12.574 13.5275 13.7059 13.5275 15.0883C13.5275 16.4707 14.6602 17.6026 16.0436 17.6026C17.427 17.6026 18.5597 16.4707 18.5597 15.0883C18.5597 13.7059 17.4363 12.574 16.0436 12.574Z" fill="#999999"/>
</svg>
