<svg width="32" height="32" viewBox="0 0 32 32" fill="none" xmlns="http://www.w3.org/2000/svg">
<path d="M27.2895 13.0096L26.4553 12.0387C24.1289 14.0371 20.4265 16.4195 15.9999 16.4195C11.5733 16.4195 7.87126 14.0371 5.54486 12.0387L4.71094 13.0096C5.3727 13.5782 6.14326 14.1753 7.00342 14.7465L5.08566 17.3859L6.12118 18.1385L8.0927 15.4253C8.98294 15.9405 9.95382 16.4109 10.9938 16.7888L9.92534 20.0771L11.1429 20.4726L12.2149 17.1728C13.2117 17.4464 14.262 17.6269 15.3599 17.6781V21.1408H16.6399V17.6784C17.7378 17.6272 18.7881 17.4467 19.7845 17.1731L20.8572 20.4733L22.0748 20.0777L21.006 16.7888C22.046 16.4109 23.0165 15.9411 23.9068 15.4256L25.8789 18.1395L26.9145 17.3869L24.9961 14.7465C25.8569 14.1753 26.6274 13.5785 27.2895 13.0096Z" fill="#999999"/>
</svg>
