<svg width="24" height="24" viewBox="0 0 24 24" fill="none" xmlns="http://www.w3.org/2000/svg">
<circle cx="12" cy="12" r="9" fill="#333333"/>
<path d="M11.937 8.003C10.474 8.003 9.561 8.861 9.506 10.28H10.452C10.507 9.235 11.035 8.817 11.948 8.817C12.861 8.817 13.356 9.455 13.356 10.126C13.356 10.929 12.949 11.27 12.355 11.743C11.629 12.326 11.299 12.645 11.299 13.613V13.921H12.245V13.613C12.245 12.898 12.432 12.744 12.96 12.337C13.73 11.71 14.302 11.281 14.302 10.126C14.302 8.839 13.367 8.003 11.937 8.003ZM12.344 16V14.724H11.2V16H12.344Z" fill="white"/>
</svg>
