<svg width="25" height="27" viewBox="0 0 25 27" fill="none" xmlns="http://www.w3.org/2000/svg">
<path d="M1 14.3925C1 8.37366 5.56002 3.40882 11.4365 2.76256C11.6482 2.73928 11.8128 2.56288 11.8128 2.34991C11.8128 2.12468 11.6302 1.94209 11.4049 1.94209H9.63676C9.12079 1.94209 8.717 1.53829 8.717 1.02233C8.717 0.506366 9.12079 0.10257 9.63676 0.10257H15.6937C16.2097 0.10257 16.6135 0.506366 16.6135 1.02233C16.6135 1.53829 16.2097 1.94209 15.6937 1.94209H14.0605C13.8351 1.94209 13.6523 2.12487 13.6523 2.35034C13.6523 2.56319 13.816 2.73958 14.0275 2.7631C15.8927 2.97054 17.61 3.60007 19.0997 4.57192C19.4176 4.77928 19.8403 4.74976 20.1087 4.4814L20.2252 4.36486C20.4606 4.12946 20.4606 3.74781 20.2252 3.51241C19.8663 3.15348 19.8663 2.57021 20.2252 2.21128C20.5841 1.85235 21.1674 1.85235 21.5263 2.21128L23.6575 4.34243C24.0164 4.70136 24.0164 5.28462 23.6575 5.64355C23.478 5.82302 23.2537 5.91275 23.0069 5.91275C22.7601 5.91275 22.5358 5.82302 22.3563 5.64355C22.1209 5.40815 21.7393 5.40815 21.5039 5.64355L21.4702 5.6772C21.2163 5.93119 21.2178 6.3418 21.457 6.60967C23.3013 8.67428 24.4202 11.4176 24.4202 14.3925C24.4202 20.8532 19.1708 26.1026 12.7101 26.1026C6.24935 26.1026 1 20.8532 1 14.3925ZM12.7101 4.5219C7.25884 4.5219 2.81708 8.94122 2.81708 14.4149C2.81708 19.8662 7.25884 24.3079 12.7101 24.3079C18.1613 24.3079 22.6031 19.8662 22.6031 14.4149C22.6031 8.96366 18.1613 4.5219 12.7101 4.5219ZM12.7101 15.1552C12.1941 15.1552 11.7903 14.7514 11.7903 14.2579V8.58229C11.7903 8.06633 12.1941 7.66254 12.7101 7.66254C13.2261 7.66254 13.6299 8.06633 13.6299 8.58229V10.3096C13.6299 11.9698 14.9757 13.3157 16.6359 13.3157C17.1519 13.3157 17.5557 13.7195 17.5557 14.2354C17.5557 14.7514 17.1519 15.1552 16.6359 15.1552H12.7101Z" fill="#FF7200" stroke="#FF7200" stroke-width="0.2"/>
</svg>
