<?xml version="1.0" encoding="utf-8"?>
<!-- Generator: Adobe Illustrator 21.0.0, SVG Export Plug-In . SVG Version: 6.00 Build 0)  -->
<svg version="1.1" id="Layer_1" xmlns="http://www.w3.org/2000/svg" xmlns:xlink="http://www.w3.org/1999/xlink" x="0px" y="0px"
	 width="164px" height="60px" viewBox="0 0 164 60" style="enable-background:new 0 0 164 60;" xml:space="preserve">
<style type="text/css">
	.st0{fill:#FFFFFF;}
</style>
<path d="M153,59H11C5.5,59,1,54.5,1,49V11C1,5.5,5.5,1,11,1h142c5.5,0,10,4.5,10,10v38C163,54.5,158.5,59,153,59z"/>
<path class="st0" d="M62.1,21.9c-0.3,1.4-1.3,2.3-3,2.3c-2.2,0-3.4-1.6-3.4-3.7c0-2.1,1.2-3.7,3.4-3.7c1.7,0,2.7,0.9,2.9,2.2h-1.2
	c-0.2-0.7-0.8-1.2-1.7-1.2c-1.6,0-2.2,1.2-2.2,2.6c0,1.4,0.7,2.7,2.2,2.7c1,0,1.6-0.5,1.8-1.3H62.1z M67.5,20.9h-2.1V24h-1.2v-7.1
	h1.2v2.9h2.1l1.5-2.9h1.2l-1.7,3.4l1.8,3.7H69L67.5,20.9z M76.8,23.3h-0.3c-0.4,0.5-1.2,0.9-2.2,0.9c-1.6,0-2.5-1.1-2.5-2.3
	c0-1.1,0.7-2.3,2.7-2.3h2.3v-0.3c0-0.9-0.5-1.5-1.7-1.5c-1,0-1.6,0.4-1.6,1h-1.2c0.1-1.3,1.2-2.1,2.8-2.1c1.8,0,2.9,0.9,2.9,2.4V24
	h-1.1V23.3z M76.7,21.1v-0.6h-2.1c-1.2,0-1.7,0.5-1.7,1.3c0,0.8,0.6,1.3,1.6,1.3C75.8,23.1,76.7,22.3,76.7,21.1z M81.2,16.9v2
	c0,0.7,0,1.4,1.8,1.4c0.7,0,1.2-0.1,1.8-0.2v-3.2h1.2V24h-1.2v-2.8c-0.6,0.1-1.4,0.2-2,0.2c-2.6,0-2.7-1.2-2.7-2.4v-2.1H81.2z
	 M92.9,23.3h-0.3c-0.4,0.5-1.2,0.9-2.2,0.9c-1.6,0-2.5-1.1-2.5-2.3c0-1.1,0.7-2.3,2.7-2.3h2.3v-0.3c0-0.9-0.5-1.5-1.7-1.5
	c-1.1,0-1.6,0.4-1.6,1h-1.2c0.1-1.3,1.2-2.1,2.8-2.1c1.8,0,2.9,0.9,2.9,2.4V24h-1.1V23.3z M92.8,21.1v-0.6h-2.1
	c-1.2,0-1.7,0.5-1.7,1.3c0,0.8,0.6,1.3,1.6,1.3C91.8,23.1,92.8,22.3,92.8,21.1z M95.6,16.9h6.1v1h-2.4v6h-1.2v-6h-2.5V16.9z
	 M104.7,19.3h2.1c1.7,0,2.7,0.9,2.7,2.3c0,1.5-0.9,2.4-2.7,2.4h-3.3v-7.1h1.2V19.3z M106.7,23c1.2,0,1.6-0.5,1.6-1.3
	c0-0.8-0.4-1.3-1.6-1.3h-1.9V23H106.7z M115.6,24v-7.1h1.2v5.5h0.3l3.1-5.5h1.7V24h-1.2v-5.5h-0.3l-3.2,5.5H115.6z M127,17.8
	c-1,0-1.5,0.3-1.7,1.1h-1.1c0.1-1.3,1.2-2.1,2.9-2.1c1.8,0,2.7,0.9,2.7,2c0,0.8-0.3,1.3-0.8,1.4v0.3c0.5,0.2,1,0.6,1,1.6
	c0,1.2-1,2.1-2.9,2.1c-1.9,0-3-0.9-3.2-2.2h1.1c0.3,0.9,1.1,1.1,2,1.1c1,0,1.7-0.4,1.7-1.1c0-0.7-0.4-1.1-1.6-1.1H126v-1h1.2
	c1,0,1.4-0.5,1.4-1C128.6,18.2,127.9,17.8,127,17.8z M62.4,39.1h-4.1L57.5,42h-2.2l3.4-10.7h3.5L65.6,42h-2.3L62.4,39.1z M58.9,37.2
	h2.9l-1.1-3.7H60L58.9,37.2z M69.3,34.3V35h0.4c0.4-0.5,1.1-0.9,2.2-0.9c2,0,3.3,1.7,3.3,4c0,2.4-1.2,4-3.3,4
	c-1.1,0-1.7-0.4-2.1-0.9h-0.4V45h-2.1V34.3H69.3z M69.3,38.1c0,1.2,0.6,2.3,1.9,2.3c1.3,0,1.8-1,1.8-2.3s-0.6-2.3-1.8-2.3
	C69.8,35.9,69.3,36.9,69.3,38.1z M79.2,34.3V35h0.4c0.4-0.5,1.1-0.9,2.2-0.9c2,0,3.3,1.7,3.3,4c0,2.4-1.2,4-3.3,4
	c-1.1,0-1.7-0.4-2.1-0.9h-0.4V45h-2.1V34.3H79.2z M79.2,38.1c0,1.2,0.6,2.3,1.9,2.3c1.3,0,1.8-1,1.8-2.3s-0.6-2.3-1.8-2.3
	C79.8,35.9,79.2,36.9,79.2,38.1z M97.5,34.2c-0.2-0.9-0.8-1.2-2-1.2c-0.9,0-1.8,0.4-1.8,1.2c0,0.7,0.6,1,1.3,1.1l2,0.4
	c1.7,0.3,2.9,1.2,2.9,3.1c0,1.8-1.4,3.4-4.3,3.4c-2.7,0-4.3-1.3-4.6-3.5h2.3c0.2,1.2,1.2,1.5,2.4,1.5c1.2,0,2-0.5,2-1.3
	c0-0.8-0.6-1.2-1.5-1.3l-2-0.4c-1.8-0.3-2.7-1.3-2.7-2.9c0-1.8,1.4-3.2,4-3.2c2.3,0,4,1.2,4.2,3.1H97.5z M106.4,34.3V36h-1.7v3.3
	c0,0.5,0.3,0.9,1,0.9h0.7V42h-0.7c-1.8,0-3.1-0.5-3.1-2.4V36h-1.1v-1.8h1.1v-2.2h2.1v2.2H106.4z M116.1,38.1c0,2.4-1.5,4-4,4
	c-2.4,0-4-1.6-4-4c0-2.4,1.6-4,4-4C114.6,34.1,116.1,35.7,116.1,38.1z M114,38.1c0-1.2-0.6-2.3-1.9-2.3c-1.3,0-1.9,1.1-1.9,2.3
	c0,1.2,0.6,2.3,1.9,2.3C113.5,40.5,114,39.4,114,38.1z M123.4,36.2h-0.8c-1.6,0-2.4,0.8-2.4,2.4V42h-2.1v-7.7h2v0.9h0.4
	c0.2-0.4,0.8-0.9,2.1-0.9h0.7V36.2z M132.4,38.4h-5.5c0.1,1.3,0.7,2.1,1.9,2.1c0.8,0,1.2-0.3,1.4-0.8h2.1c-0.3,1.5-1.5,2.5-3.6,2.5
	c-2.4,0-3.9-1.6-3.9-4.1s1.5-4,3.9-4c2.3,0,3.7,1.6,3.7,3.7V38.4z M127,37h3.3c-0.1-0.8-0.6-1.3-1.6-1.3
	C127.7,35.7,127.2,36.2,127,37z"/>
<path class="st0" d="M39.9,28.8c0.1,5.4,4.7,7.3,4.8,7.3c0,0.1-0.7,2.6-2.5,5.1c-1.5,2.2-3,4.4-5.5,4.4c-2.4,0-3.2-1.4-5.9-1.4
	c-2.7,0-3.6,1.4-5.8,1.5c-2.3,0.1-4.1-2.4-5.6-4.6C16.4,36.7,14,28.5,17.2,23c1.6-2.7,4.3-4.5,7.4-4.5c2.3,0,4.5,1.6,5.9,1.6
	c1.4,0,4-1.9,6.8-1.7c1.2,0,4.4,0.5,6.5,3.6C43.6,22.1,39.8,24.3,39.9,28.8 M35.4,15.5c1.2-1.5,2.1-3.6,1.9-5.7
	c-1.8,0.1-4,1.2-5.2,2.7c-1.2,1.3-2.2,3.5-1.9,5.6C32.1,18.2,34.2,17,35.4,15.5"/>
</svg>
