<svg width="24" height="24" viewBox="0 0 24 24" fill="none" xmlns="http://www.w3.org/2000/svg">
<path d="M2.3427 6.34306C2.73322 5.95254 3.36639 5.95254 3.75691 6.34306L12.6564 15.2426C13.0469 15.6331 13.0469 16.2662 12.6564 16.6568C12.2659 17.0473 11.6327 17.0473 11.2422 16.6568L2.3427 7.75728C1.95217 7.36675 1.95217 6.73359 2.3427 6.34306Z" fill="#333333"/>
<path d="M21.6042 6.34306C21.2136 5.95254 20.5805 5.95254 20.19 6.34306L11.2905 15.2426C10.8999 15.6331 10.8999 16.2662 11.2905 16.6568C11.681 17.0473 12.3142 17.0473 12.7047 16.6568L21.6042 7.75728C21.9947 7.36675 21.9947 6.73359 21.6042 6.34306Z" fill="#333333"/>
</svg>
