<svg width="60" height="23" viewBox="0 0 60 23" fill="none" xmlns="http://www.w3.org/2000/svg">
<g clip-path="url(#clip0)">
<path d="M17.9 6.6001L15.1 12.8001L13.2 8.5001C12.9 8.7001 12.6 8.7001 12.2 8.7001C11.1 8.7001 10.4 8.0001 10.2 7.1001C9.80005 7.0001 9.30005 6.8001 8.70005 6.6001H6.30005L12.4 17.4001V23.0001H17.7V17.4001L24 6.6001H17.9Z" fill="#757575"/>
<path d="M24.6 8.1001V23.0001H19.7V17.2001L24.6 8.1001Z" fill="#636363"/>
<path d="M24.6 0V5.3H19.7V4.6L24.6 0Z" fill="#636363"/>
<path d="M28.9 10.6001C27.6 10.6001 26.4 9.8001 26.4 8.1001C26.4 6.4001 27.6 5.6001 28.9 5.6001C30.3 5.6001 31.4 6.4001 31.4 8.1001C31.5 9.8001 30.3 10.6001 28.9 10.6001ZM26.5 23.0001V11.8001H31.4V23.0001H26.5Z" fill="#636363"/>
<path d="M41 11.3999C44 11.3999 45.2999 13.5999 45.2999 15.7999V22.9999H40.4V16.5999C40.4 15.8999 39.8999 15.4999 39.2999 15.4999C38.7999 15.4999 38.3999 15.7999 38.0999 16.0999V22.9999H33.2V11.7999H37.5V12.8999C38.5 11.8999 39.6 11.3999 41 11.3999Z" fill="#636363"/>
<path d="M54.7 23.0001L52.6 19.2001H51.9V23.0001H47V6.6001H51.9V15.4001H52.6L54.6 11.8001H59.9L56.5 17.3001L60 23.0001H54.7Z" fill="#636363"/>
<path d="M13 21.7002H7.19995V23.0002H13V21.7002Z" fill="#757575"/>
<path d="M8.1 6.6001C11.8 6.6001 13.8 7.9001 13.8 10.7001C13.8 12.4001 13.2 13.6001 11.5 14.2001C13.4 14.8001 14.5 16.1001 14.5 18.2001C14.5 21.9001 11.3 22.9001 7.9 22.9001H0V6.6001H8.1ZM7.3 10.6001H5.3V13.0001H7.3C8.2 13.0001 8.6 12.4001 8.6 11.8001C8.7 11.1001 8.2 10.6001 7.3 10.6001ZM7.6 16.4001H5.3V19.0001H7.6C8.6 19.0001 9.1 18.5001 9.1 17.7001C9.1 16.9001 8.6 16.4001 7.6 16.4001Z" fill="#636363"/>
</g>
<defs>
<clipPath id="clip0">
<rect width="60" height="23" fill="white"/>
</clipPath>
</defs>
</svg>
