<svg width="60" height="23" viewBox="0 0 60 23" fill="none" xmlns="http://www.w3.org/2000/svg">
<path d="M17.9 6.59998L15.1 12.8L13.2 8.49998C12.9 8.69998 12.6 8.69998 12.2 8.69998C11.1 8.69998 10.4 7.99998 10.2 7.09998C9.80005 6.99998 9.30005 6.79998 8.70005 6.59998H6.30005L12.4 17.4V23H17.7V17.4L24 6.59998H17.9Z" fill="#1998B8"/>
<path d="M24.6 8.09998V23H19.7V17.2L24.6 8.09998Z" fill="#178099"/>
<path d="M24.6 0V5.3H19.7V4.6L24.6 0Z" fill="#178099"/>
<path d="M28.9 10.6C27.6 10.6 26.4 9.79998 26.4 8.09998C26.4 6.39998 27.6 5.59998 28.9 5.59998C30.3 5.59998 31.4 6.39998 31.4 8.09998C31.5 9.79998 30.3 10.6 28.9 10.6ZM26.5 23V11.8H31.4V23H26.5Z" fill="#178099"/>
<path d="M41 11.4C44 11.4 45.2999 13.6 45.2999 15.8V23H40.4V16.6C40.4 15.9 39.8999 15.5 39.2999 15.5C38.7999 15.5 38.3999 15.8 38.0999 16.1V23H33.2V11.8H37.5V12.9C38.5 11.9 39.6 11.4 41 11.4Z" fill="#178099"/>
<path d="M54.7 23L52.6 19.2H51.9V23H47V6.59998H51.9V15.4H52.6L54.6 11.8H59.9L56.5 17.3L60 23H54.7Z" fill="#178099"/>
<path d="M13 21.7H7.19995V23H13V21.7Z" fill="#1998B8"/>
<path d="M8.1 6.59998C11.8 6.59998 13.8 7.89998 13.8 10.7C13.8 12.4 13.2 13.6 11.5 14.2C13.4 14.8 14.5 16.1 14.5 18.2C14.5 21.9 11.3 22.9 7.9 22.9H0V6.59998H8.1ZM7.3 10.6H5.3V13H7.3C8.2 13 8.6 12.4 8.6 11.8C8.7 11.1 8.2 10.6 7.3 10.6ZM7.6 16.4H5.3V19H7.6C8.6 19 9.1 18.5 9.1 17.7C9.1 16.9 8.6 16.4 7.6 16.4Z" fill="#178099"/>
</svg>
