<svg width="16" height="16" viewBox="0 0 16 16" fill="none" xmlns="http://www.w3.org/2000/svg">
<path d="M13.1136 12.4545H1.88636C1.38409 12.4545 1 12.0705 1 11.5682V5.36364C1 4.86136 1.38409 4.47727 1.88636 4.47727H4.63409L5.225 3H9.775L10.3659 4.47727H13.1136C13.6159 4.47727 14 4.86136 14 5.36364V11.5682C14 12.0705 13.6159 12.4545 13.1136 12.4545ZM1.88636 5.06818C1.70909 5.06818 1.59091 5.18636 1.59091 5.36364V11.5682C1.59091 11.7455 1.70909 11.8636 1.88636 11.8636H13.1136C13.2909 11.8636 13.4091 11.7455 13.4091 11.5682V5.36364C13.4091 5.18636 13.2909 5.06818 13.1136 5.06818H9.95227L9.36136 3.59091H5.63864L5.04773 5.06818H1.88636Z" fill="#777777"/>
<path d="M7.50016 10.9769C6.02288 10.9769 4.84106 9.79512 4.84106 8.31784C4.84106 6.84057 6.02288 5.65875 7.50016 5.65875C8.97743 5.65875 10.1592 6.84057 10.1592 8.31784C10.1592 9.79512 8.97743 10.9769 7.50016 10.9769ZM7.50016 6.24966C6.34788 6.24966 5.43197 7.16557 5.43197 8.31784C5.43197 9.47012 6.34788 10.386 7.50016 10.386C8.65243 10.386 9.56834 9.47012 9.56834 8.31784C9.56834 7.16557 8.65243 6.24966 7.50016 6.24966Z" fill="#777777"/>
</svg>
