<svg width="32" height="32" viewBox="0 0 32 32" fill="333333" xmlns="http://www.w3.org/2000/svg">
<path d="M5.24298 10C4.92049 10.0127 4.55768 10.0509 4.24863 10.191C3.36178 10.5984 2.91835 11.3751 3.01241 12.3937L3.61708 19.1675C3.63052 20.5426 4.79955 21.7395 6.14327 21.7395H8.38727C8.81726 22.4907 9.6638 23 10.6313 23C11.76 23 12.714 22.2997 13.05 21.332H20.9107C20.951 21.332 21.0048 21.332 21.0451 21.3193C21.3676 22.287 22.3216 23 23.4638 23C24.4312 23 25.2509 22.4907 25.6809 21.7395H28.0727C28.7311 21.7395 29.2955 21.4466 29.6314 20.9119C30.1958 20.0333 30.048 18.7728 29.618 17.9961L25.7884 11.1969C25.3718 10.4456 24.5522 10.0127 23.5444 10.0127H5.65953H5.55203C5.45797 10 5.35047 10 5.24298 10ZM5.53859 11.2096H5.96858L6.98981 20.1352C7.00324 20.288 7.08387 20.4153 7.19136 20.5171H6.12983C5.48485 20.5171 4.88017 19.8296 4.88017 19.1166C4.88017 19.1038 4.88017 19.0784 4.88017 19.0656L4.2755 12.2919C4.22175 11.6425 4.51737 11.4133 4.79955 11.286C4.94736 11.2096 5.31016 11.2096 5.53859 11.2096ZM7.25855 11.2096H23.5041C23.8131 11.2096 24.3506 11.286 24.6059 11.7571L24.7537 12.0245H20.6554C19.8357 12.0245 19.352 12.6611 19.352 13.4378V14.6474C19.352 15.4241 19.8357 16.0607 20.6554 16.0607H26.8365C26.8902 16.0607 26.9574 16.048 27.0112 16.0353L28.4221 18.5436C28.7177 19.0656 28.7311 19.855 28.4758 20.2625C28.3683 20.4407 28.2205 20.5171 28.0055 20.5171H25.9228C25.869 19.2439 24.7672 18.1998 23.3966 18.1998C22.1738 18.1998 21.1526 19.0274 20.9107 20.1224C20.8838 20.1224 20.8704 20.1097 20.8435 20.1097H13.0768C12.835 19.0274 11.8272 18.1998 10.6044 18.1998C9.52943 18.1998 8.60227 18.8492 8.23946 19.7532L7.25855 11.2096ZM20.6688 13.2341H25.439L26.3527 14.8511H20.6554C20.5345 14.8511 20.6285 14.762 20.6285 14.6474V13.4378C20.642 13.3232 20.5613 13.2341 20.6688 13.2341ZM10.6044 19.4349C11.2897 19.4349 11.8406 19.9569 11.8406 20.6063C11.8406 21.2556 11.2897 21.7777 10.6044 21.7777C9.91911 21.7777 9.35475 21.2556 9.35475 20.6063C9.35475 19.9569 9.91911 19.4349 10.6044 19.4349ZM23.4369 19.4349C24.1222 19.4349 24.6731 19.9569 24.6731 20.6063C24.6731 21.2556 24.1222 21.7777 23.4369 21.7777C22.7516 21.7777 22.1872 21.2556 22.1872 20.6063C22.1872 19.9569 22.7516 19.4349 23.4369 19.4349Z"/>
</svg>
