<svg width="24" height="24" viewBox="0 0 24 24" xmlns="http://www.w3.org/2000/svg">
    <path fill="none" />
    <path d="M4.44524 12.3431C4.83576 11.9526 5.46893 11.9526 5.85945 12.3431L9.75895 16.2426C10.1495 16.6331 10.1495 17.2663 9.75895 17.6568C9.36842 18.0474 8.73526 18.0474 8.34473 17.6568L4.44524 13.7573C4.05471 13.3668 4.05471 12.7336 4.44524 12.3431Z" fill="#333333"/>
    <path d="M19.6573 6.34313C19.2668 5.9526 18.6336 5.9526 18.2431 6.34313L8.34359 16.2426C7.95307 16.6331 7.95307 17.2663 8.34359 17.6568C8.73412 18.0474 9.36728 18.0474 9.75781 17.6568L19.6573 7.75734C20.0478 7.36681 20.0478 6.73365 19.6573 6.34313Z" fill="#333333"/>
</svg>
