<svg width="32" height="32" viewBox="0 0 32 32" xmlns="http://www.w3.org/2000/svg">
<path d="M21.2722 14.843C21.2722 14.4651 20.9699 14.1627 20.6046 14.1627H16.5106V10.0814C16.5106 9.70347 16.2083 9.40114 15.8304 9.40114C15.4525 9.40114 15.1502 9.70347 15.1502 10.0814V14.843C15.1502 15.2209 15.4525 15.5232 15.8304 15.5232H20.6046C20.9699 15.5232 21.2722 15.2209 21.2722 14.843ZM23.3129 14.843C23.3129 18.9747 19.9621 22.3255 15.8304 22.3255C11.6986 22.3255 8.34786 18.9747 8.34786 14.843C8.34786 10.7112 11.6986 7.36046 15.8304 7.36046C19.9621 7.36046 23.3129 10.7112 23.3129 14.843ZM24.6734 14.843C24.6734 9.9554 20.7179 6 15.843 6C10.9554 6 7 9.9554 7 14.843C7 19.7305 10.9554 23.686 15.843 23.686C20.7179 23.6734 24.6734 19.7179 24.6734 14.843Z"/>
</svg>
