<svg width="24" height="24" viewBox="0 0 24 24" fill="none" xmlns="http://www.w3.org/2000/svg">
<path d="M12.5197 21C12.2918 21 12.121 20.8311 12.121 20.606V18.6076L10.3552 19.6209C10.3268 19.649 10.2413 19.6772 10.1559 19.6772C10.0135 19.6772 9.87109 19.5927 9.78565 19.452C9.67173 19.255 9.72869 19.0298 9.92805 18.9172L12.0925 17.6788V13.2036L8.16232 15.4272V17.904C8.16232 18.1291 7.99144 18.298 7.76361 18.298C7.53577 18.298 7.3649 18.1291 7.3649 17.904V15.9056L5.59917 16.9189C5.59917 16.9189 5.51373 16.947 5.45677 16.947C5.31438 16.947 5.17198 16.8626 5.08654 16.7219C5.02958 16.6374 5.02958 16.5248 5.02958 16.4404C5.05806 16.3278 5.11502 16.2434 5.22894 16.1871L6.96618 15.1738L5.22894 14.1606C5.02958 14.048 4.97262 13.8228 5.08654 13.6258C5.17198 13.5132 5.2859 13.4288 5.42829 13.4288C5.48525 13.4288 5.57069 13.457 5.62765 13.4851L7.79209 14.7235L11.7223 12.5L7.79209 10.2483L5.62765 11.4868C5.59917 11.5149 5.51373 11.543 5.42829 11.543C5.2859 11.543 5.1435 11.4586 5.05806 11.3179C4.94414 11.1209 5.0011 10.8957 5.20046 10.7831L6.9377 9.76987L5.20046 8.75662C5.02958 8.64404 4.97262 8.41887 5.08654 8.22185C5.17198 8.10927 5.2859 8.02483 5.42829 8.02483C5.48525 8.02483 5.57069 8.05298 5.62765 8.08113L7.39338 9.09437V7.09603C7.39338 6.87086 7.56425 6.70199 7.79209 6.70199C8.01992 6.70199 8.1908 6.87086 8.1908 7.09603V9.57285L12.121 11.7964V7.29305L9.95653 6.05464C9.75717 5.94205 9.70021 5.71689 9.81413 5.51987C9.89957 5.40728 10.0135 5.32285 10.1559 5.32285C10.2128 5.32285 10.2983 5.35099 10.3552 5.37914L12.121 6.39238V4.39404C12.121 4.16887 12.2918 4 12.5197 4C12.7475 4 12.9184 4.16887 12.9184 4.39404V6.39238L14.6841 5.40728C14.7411 5.37914 14.8265 5.35099 14.8835 5.35099C15.0259 5.35099 15.1398 5.43543 15.2252 5.54801C15.3391 5.74503 15.2822 5.9702 15.0828 6.08278L12.9184 7.32119V11.7964L16.8486 9.57285V7.09603C16.8486 6.87086 17.0194 6.70199 17.2473 6.70199C17.4751 6.70199 17.646 6.87086 17.646 7.09603V9.09437L19.4117 8.08113C19.4687 8.05298 19.5541 8.02483 19.6111 8.02483C19.7535 8.02483 19.8674 8.10927 19.9528 8.22185C20.0098 8.30629 20.0098 8.41887 19.9813 8.53146C19.9528 8.61589 19.8959 8.70033 19.8104 8.72848L18.0447 9.74172L19.7819 10.755C19.9813 10.8675 20.0383 11.0927 19.9243 11.2897C19.8389 11.4305 19.725 11.5149 19.5541 11.5149C19.4971 11.5149 19.4117 11.4868 19.3547 11.4586L17.2188 10.2202L13.2886 12.4437L17.2473 14.6954L19.4117 13.457C19.4687 13.4288 19.5541 13.4007 19.6111 13.4007C19.7535 13.4007 19.8674 13.4851 19.9528 13.5977C20.0098 13.6821 20.0098 13.7947 19.9813 13.9073C19.9528 14.0199 19.8959 14.1043 19.7819 14.1606L18.0447 15.1738L19.7819 16.1871C19.9813 16.2997 20.0383 16.5248 19.9243 16.7219C19.8389 16.8626 19.725 16.947 19.5541 16.947C19.4971 16.947 19.4117 16.9189 19.3547 16.8907L17.6175 15.8775V17.8758C17.6175 18.101 17.4466 18.2699 17.2188 18.2699C16.991 18.2699 16.8201 18.101 16.8201 17.8758V15.399L12.8899 13.1755V17.6507L15.0543 18.8891C15.2537 19.0017 15.3107 19.2268 15.1967 19.4238C15.1113 19.5646 14.9974 19.649 14.8265 19.649C14.7696 19.649 14.6841 19.6209 14.6272 19.5927L12.8899 18.5795V20.606C12.9184 20.8311 12.7475 21 12.5197 21Z" fill="#222222"/>
</svg>
