<svg width="24" height="24" viewBox="0 0 24 24" fill="333333" xmlns="http://www.w3.org/2000/svg">
<path d="M11.7387 19.6842C11.5263 19.6842 11.3466 19.5045 11.3466 19.2922C11.3303 18.6878 11.412 18.0835 11.5917 17.5281C11.7713 17.0381 11.8693 16.5154 11.8693 15.9927C11.8693 15.7804 12.049 15.6007 12.2613 15.6007C12.4737 15.6007 12.6534 15.7804 12.6534 15.9927C12.6697 16.5971 12.588 17.1851 12.4083 17.7568C12.2287 18.2468 12.1307 18.7695 12.1307 19.2922C12.1307 19.5045 11.951 19.6842 11.7387 19.6842ZM15.7731 18.3612C15.5445 18.3612 15.3811 18.1815 15.3811 17.9691C15.3811 17.5935 15.4301 17.2178 15.5608 16.8584C15.6751 16.5808 15.7241 16.2868 15.7405 15.9764C15.7405 15.7477 15.9201 15.5681 16.1325 15.5681H16.1652C16.2795 15.5681 16.3775 15.6171 16.4428 15.6824C16.5245 15.7641 16.5572 15.8621 16.5572 15.9601C16.5572 16.3358 16.5082 16.6951 16.3775 17.0544C16.2468 17.3321 16.1815 17.6261 16.1652 17.9365C16.1652 18.1815 15.9855 18.3612 15.7731 18.3612ZM7.86751 18.3612C7.63884 18.3612 7.4755 18.1815 7.4755 17.9691C7.45917 17.5935 7.50817 17.2178 7.6225 16.8748C7.73684 16.5971 7.78584 16.3031 7.80218 15.9927C7.80218 15.7641 7.98185 15.5844 8.19419 15.5844H8.22686C8.3412 15.5844 8.4392 15.6334 8.50454 15.6987C8.56987 15.7641 8.61888 15.8784 8.61888 15.9764C8.61888 16.3521 8.56987 16.7278 8.4392 17.0871C8.32486 17.3648 8.27586 17.6588 8.25953 17.9691C8.27586 18.1815 8.09619 18.3612 7.86751 18.3612ZM4.71506 13.7387C3.7677 13.7387 3 12.9546 3 12.0073V6.71506C3 5.7677 3.7677 5 4.71506 5H19.2686C20.216 5 20.9837 5.7677 20.9837 6.71506V12.0073C20.9837 12.9546 20.216 13.7223 19.2686 13.7223H4.71506V13.7387ZM4.71506 5.80036C4.20871 5.80036 3.80036 6.20871 3.80036 6.71506V12.0073C3.80036 12.5136 4.20871 12.922 4.71506 12.922H19.2686C19.775 12.922 20.1833 12.5136 20.1833 12.0073V6.71506C20.1833 6.20871 19.775 5.80036 19.2686 5.80036H4.71506ZM6.03811 11.0926C5.82577 11.0926 5.6461 10.9129 5.6461 10.7005C5.6461 10.4882 5.82577 10.3085 6.03811 10.3085H17.9456C18.1742 10.3085 18.3376 10.4882 18.3376 10.7005C18.3376 10.9129 18.1579 11.0926 17.9456 11.0926H6.03811ZM17.2922 8.44646C17.0635 8.44646 16.9002 8.26679 16.9002 8.05445C16.9002 7.84211 17.0799 7.66243 17.2922 7.66243H17.9456C18.1742 7.66243 18.3376 7.84211 18.3376 8.05445C18.3376 8.26679 18.1579 8.44646 17.9456 8.44646H17.2922Z"/>
</svg>
