<svg width="24" height="24" viewBox="0 0 24 24" fill="none" xmlns="http://www.w3.org/2000/svg">
<path d="M18.518 7.20959C18.542 7.23119 18.5636 7.25519 18.5852 7.28159L18.6188 7.32959L18.65 7.38479C18.6668 7.41599 18.6812 7.45199 18.6956 7.48799L18.7148 7.54799C18.7436 7.64879 18.758 7.75679 18.758 7.86239C18.758 7.96799 18.7436 8.07599 18.7148 8.17679L18.6956 8.23679C18.6812 8.27279 18.6668 8.30879 18.65 8.33999L18.6188 8.39519L18.5852 8.44319C18.5636 8.46959 18.542 8.49359 18.518 8.51519L14.5964 12.0816C14.3684 12.2904 14.0756 12.1656 13.9436 11.8056C13.814 11.4432 13.8908 10.9848 14.1212 10.776L16.4972 8.61599H5.71881C5.45481 8.61599 5.24121 8.27759 5.24121 7.86239C5.24121 7.44719 5.45481 7.10879 5.71881 7.10879H16.4972L14.1212 4.94879C13.8908 4.73999 13.814 4.28159 13.9436 3.91919C14.0756 3.55919 14.3684 3.43439 14.5964 3.64319L18.518 7.20959Z" fill="#333333"/>
<path d="M5.48121 16.7904C5.45721 16.7688 5.43561 16.7448 5.41401 16.7184L5.38041 16.6704L5.34921 16.6152C5.33241 16.584 5.31801 16.548 5.30361 16.512L5.28441 16.452C5.25561 16.3512 5.24121 16.2432 5.24121 16.1376C5.24121 16.032 5.25561 15.924 5.28441 15.8232L5.30361 15.7632C5.31801 15.7272 5.33241 15.6912 5.34921 15.66L5.38041 15.6048L5.41401 15.5568C5.43561 15.5304 5.45721 15.5064 5.48121 15.4848L9.40281 11.9184C9.63081 11.7096 9.92361 11.8344 10.0556 12.1944C10.1852 12.5544 10.106 13.0152 9.87801 13.224L7.50201 15.384H18.2804C18.5444 15.384 18.758 15.7224 18.758 16.1376C18.758 16.5528 18.5444 16.8912 18.2804 16.8912H7.50201L9.87801 19.0512C10.106 19.26 10.1852 19.7184 10.0556 20.0808C9.92361 20.4408 9.63081 20.5632 9.40281 20.3568L5.48121 16.7904Z" fill="#333333"/>
</svg>
