<svg width="56" height="56" viewBox="0 0 56 56" fill="none" xmlns="http://www.w3.org/2000/svg">
<path d="M14.039 28.6149V27.3851C14.039 27.0243 14.3272 26.7586 14.6827 26.7586H52.3563C52.7088 26.7586 53 27.0391 53 27.3851V28.6149C53 28.9757 52.7118 29.2414 52.3563 29.2414H14.6827C14.3302 29.2414 14.039 28.9609 14.039 28.6149ZM14.039 43.5114V42.2817C14.039 41.9209 14.3272 41.6552 14.6827 41.6552H52.3563C52.7088 41.6552 53 41.9357 53 42.2817V43.5114C53 43.8722 52.7118 44.1379 52.3563 44.1379H14.6827C14.3302 44.1379 14.039 43.8574 14.039 43.5114ZM14.039 13.7183V12.4886C14.039 12.1278 14.3272 11.8621 14.6827 11.8621H52.3563C52.7088 11.8621 53 12.1426 53 12.4886V13.7183C53 14.0791 52.7118 14.3448 52.3563 14.3448H14.6827C14.3302 14.3448 14.039 14.0643 14.039 13.7183ZM3 11.2411C3 10.5557 3.57626 10 4.29845 10H8.19505C8.91217 10 9.49351 10.5508 9.49351 11.2411V14.9658C9.49351 15.6512 8.91725 16.2069 8.19505 16.2069H4.29845C3.58134 16.2069 3 15.6561 3 14.9658V11.2411ZM4.94805 11.8621V14.3448H7.54545V11.8621H4.94805ZM3 26.1377C3 25.4522 3.57626 24.8966 4.29845 24.8966H8.19505C8.91217 24.8966 9.49351 25.4474 9.49351 26.1377V29.8623C9.49351 30.5478 8.91725 31.1034 8.19505 31.1034H4.29845C3.58134 31.1034 3 30.5526 3 29.8623V26.1377ZM4.94805 26.7586V29.2414H7.54545V26.7586H4.94805ZM3 41.0342C3 40.3488 3.57626 39.7931 4.29845 39.7931H8.19505C8.91217 39.7931 9.49351 40.3439 9.49351 41.0342V44.7589C9.49351 45.4443 8.91725 46 8.19505 46H4.29845C3.58134 46 3 45.4492 3 44.7589V41.0342ZM4.94805 44.1379H7.54545V41.6552H4.94805V44.1379Z" fill="#C1C1C1"/>
</svg>
