<svg width="56" height="56" viewBox="0 0 56 56" fill="none" xmlns="http://www.w3.org/2000/svg">
<path fill-rule="evenodd" clip-rule="evenodd" d="M28 3.375C27.1049 3.375 26.2465 3.73058 25.6135 4.36351C24.9806 4.99645 24.625 5.85489 24.625 6.75V7.1325L24.625 7.13699C24.6212 8.08041 24.3417 9.00214 23.8208 9.78872C23.2999 10.5753 22.5603 11.1924 21.6932 11.564C21.5664 11.6184 21.4307 11.6489 21.2931 11.6542C20.4708 11.9674 19.5769 12.051 18.708 11.8935C17.7569 11.721 16.8793 11.2676 16.1883 10.5917L16.1795 10.583L16.0445 10.448C15.7311 10.1342 15.3584 9.88482 14.9487 9.71498C14.539 9.54513 14.0998 9.45771 13.6562 9.45771C13.2127 9.45771 12.7735 9.54513 12.3638 9.71498C11.9541 9.88482 11.5819 10.1338 11.2684 10.4476L11.2676 10.4484C10.9538 10.7619 10.7048 11.1341 10.535 11.5438C10.3651 11.9535 10.2777 12.3927 10.2777 12.8363C10.2777 13.2798 10.3651 13.719 10.535 14.1287C10.7048 14.5384 10.9538 14.9106 11.2676 15.2241L11.4118 15.3683C12.0877 16.0592 12.541 16.9369 12.7135 17.888C12.8838 18.8274 12.7723 19.7959 12.3935 20.6717C12.0561 21.5686 11.4598 22.3454 10.6799 22.9032C9.89037 23.4679 8.94922 23.782 7.97881 23.8047C7.97004 23.8049 7.96127 23.805 7.9525 23.805H7.75C6.85489 23.805 5.99645 24.1606 5.36351 24.7935C4.73058 25.4265 4.375 26.2849 4.375 27.18C4.375 28.0751 4.73058 28.9335 5.36351 29.5665C5.99645 30.1994 6.85489 30.555 7.75 30.555H8.13699C9.08041 30.5588 10.0021 30.8383 10.7887 31.3592C11.5736 31.879 12.1897 32.6165 12.5616 33.4812C12.95 34.3641 13.0656 35.3429 12.8935 36.292C12.721 37.2431 12.2676 38.1207 11.5917 38.8117L11.583 38.8205L11.448 38.9555C11.1342 39.2689 10.8848 39.6416 10.715 40.0513C10.5451 40.461 10.4577 40.9002 10.4577 41.3438C10.4577 41.7873 10.5451 42.2265 10.715 42.6362C10.8848 43.0459 11.1338 43.4181 11.4476 43.7316L11.4484 43.7325C11.7619 44.0462 12.1341 44.2952 12.5438 44.465C12.9535 44.6349 13.3927 44.7223 13.8363 44.7223C14.2798 44.7223 14.719 44.6349 15.1287 44.465C15.5384 44.2952 15.9106 44.0462 16.2241 43.7325L16.3683 43.5882C17.0592 42.9123 17.9369 42.459 18.888 42.2865C19.8274 42.1162 20.7959 42.2277 21.6716 42.6065C22.5686 42.9439 23.3454 43.5402 23.9032 44.3201C24.4679 45.1096 24.782 46.0508 24.8047 47.0212C24.8048 47.0257 24.8049 47.0303 24.8049 47.0348C24.805 47.039 24.805 47.0433 24.805 47.0475V47.25C24.805 48.1451 25.1606 49.0035 25.7935 49.6365C26.4265 50.2694 27.2849 50.625 28.18 50.625C29.0751 50.625 29.9335 50.2694 30.5665 49.6365C31.1994 49.0035 31.555 48.1451 31.555 47.25V46.8675L31.555 46.863C31.5588 45.9196 31.8383 44.9979 32.3592 44.2113C32.879 43.4264 33.6165 42.8103 34.4812 42.4384C35.364 42.05 36.3429 41.9344 37.292 42.1065C38.2431 42.279 39.1207 42.7324 39.8117 43.4083L39.8205 43.417L39.9555 43.552C40.2689 43.8658 40.6416 44.1152 41.0513 44.285C41.461 44.4549 41.9002 44.5423 42.3438 44.5423C42.7873 44.5423 43.2265 44.4549 43.6362 44.285C44.0459 44.1152 44.4181 43.8662 44.7316 43.5524L44.7325 43.5516C45.0462 43.2381 45.2952 42.8659 45.465 42.4562C45.6349 42.0465 45.7223 41.6073 45.7223 41.1637C45.7223 40.7202 45.6349 40.281 45.465 39.8713C45.2952 39.4616 45.0462 39.0894 44.7325 38.7759L44.5882 38.6317C43.9123 37.9408 43.459 37.0631 43.2865 36.112C43.1144 35.1629 43.23 34.184 43.6184 33.3011C43.9903 32.4365 44.6064 31.699 45.3913 31.1792C46.1779 30.6583 47.0996 30.3788 48.043 30.375L48.0475 30.375L48.25 30.375C49.1451 30.375 50.0035 30.0194 50.6365 29.3865C51.2694 28.7535 51.625 27.8951 51.625 27C51.625 26.1049 51.2694 25.2465 50.6365 24.6135C50.0035 23.9806 49.1451 23.625 48.25 23.625H47.8675L47.863 23.625C46.9196 23.6212 45.9979 23.3417 45.2113 22.8208C44.4247 22.2999 43.8076 21.5603 43.436 20.6932C43.3816 20.5664 43.3511 20.4307 43.3458 20.2931C43.0326 19.4708 42.949 18.5769 43.1065 17.708C43.279 16.7569 43.7324 15.8793 44.4083 15.1883L44.417 15.1795L44.552 15.0445C44.8658 14.7311 45.1152 14.3584 45.285 13.9487C45.4549 13.539 45.5423 13.0998 45.5423 12.6562C45.5423 12.2127 45.4549 11.7735 45.285 11.3638C45.1152 10.9541 44.8662 10.5819 44.5524 10.2684L44.5516 10.2676C44.2381 9.95375 43.8659 9.70482 43.4562 9.53498C43.0465 9.36513 42.6073 9.27771 42.1637 9.27771C41.7202 9.27771 41.281 9.36513 40.8713 9.53498C40.4616 9.70482 40.0894 9.95376 39.7759 10.2676L39.6317 10.4118C38.9408 11.0877 38.0631 11.541 37.112 11.7135C36.1629 11.8856 35.1841 11.77 34.3012 11.3816C33.4365 11.0097 32.699 10.3936 32.1792 9.60872C31.6583 8.82214 31.3788 7.90041 31.375 6.95699L31.375 6.9525V6.75C31.375 5.85489 31.0194 4.99645 30.3865 4.36351C29.7535 3.73058 28.8951 3.375 28 3.375ZM24.0225 2.77252C25.0774 1.71763 26.5082 1.125 28 1.125C29.4918 1.125 30.9226 1.71763 31.9775 2.77252C33.0324 3.82742 33.625 5.25816 33.625 6.75V6.95018C33.6274 7.45404 33.7769 7.94625 34.0552 8.36638C34.3338 8.78711 34.7294 9.11718 35.1932 9.31597L35.2043 9.32072C35.6773 9.52947 36.2019 9.5918 36.7106 9.49956C37.2175 9.40766 37.6853 9.16656 38.0543 8.80721L38.1841 8.67745C38.1842 8.6773 38.1839 8.67759 38.1841 8.67745C38.7064 8.15466 39.327 7.73948 40.0097 7.45649C40.6926 7.17341 41.4245 7.02771 42.1637 7.02771C42.903 7.02771 43.6349 7.17341 44.3178 7.45649C45.0005 7.73948 45.6207 8.15422 46.143 8.677C46.6658 9.19932 47.0805 9.81954 47.3635 10.5022C47.6466 11.1851 47.7923 11.917 47.7923 12.6562C47.7923 13.3955 47.6466 14.1274 47.3635 14.8103C47.0805 15.493 46.6658 16.1132 46.143 16.6355C46.1428 16.6356 46.1431 16.6353 46.143 16.6355L46.0129 16.7656C45.6535 17.1346 45.4123 17.6025 45.3204 18.1094C45.2282 18.6181 45.2905 19.1428 45.4992 19.6158C45.5519 19.7351 45.5833 19.8624 45.5923 19.9921C45.7943 20.376 46.0901 20.7041 46.4536 20.9448C46.8737 21.2231 47.366 21.3726 47.8698 21.375H48.25C49.7418 21.375 51.1726 21.9676 52.2275 23.0225C53.2824 24.0774 53.875 25.5082 53.875 27C53.875 28.4918 53.2824 29.9226 52.2275 30.9775C51.1726 32.0324 49.7418 32.625 48.25 32.625H48.0498C47.546 32.6274 47.0537 32.7769 46.6336 33.0552C46.2129 33.3338 45.8828 33.7294 45.684 34.1932L45.6793 34.2043C45.4705 34.6772 45.4082 35.2019 45.5004 35.7106C45.5924 36.2176 45.8335 36.6855 46.193 37.0545L46.3226 37.1841C46.8456 37.7065 47.2604 38.3269 47.5435 39.0097C47.8266 39.6926 47.9723 40.4245 47.9723 41.1637C47.9723 41.903 47.8266 42.6349 47.5435 43.3178C47.2604 44.0007 46.8456 44.621 46.3226 45.1434C45.8003 45.666 45.1803 46.0806 44.4978 46.3635C43.8149 46.6466 43.083 46.7923 42.3438 46.7923C41.6045 46.7923 40.8726 46.6466 40.1897 46.3635C39.5068 46.0804 38.8865 45.6655 38.3641 45.1425L38.2345 45.013C37.8655 44.6535 37.3976 44.4124 36.8906 44.3204C36.3819 44.2282 35.8572 44.2905 35.3842 44.4992L35.3732 44.5041C34.9094 44.7029 34.5138 45.0329 34.2352 45.4536C33.9569 45.8737 33.8074 46.366 33.805 46.8698V47.25C33.805 48.7418 33.2124 50.1726 32.1575 51.2275C31.1026 52.2824 29.6718 52.875 28.18 52.875C26.6882 52.875 25.2574 52.2824 24.2025 51.2275C23.1476 50.1726 22.555 48.7418 22.555 47.25V47.0619C22.5406 46.547 22.3728 46.0481 22.0731 45.629C21.7711 45.2067 21.349 44.8851 20.8617 44.7059C20.8394 44.6977 20.8174 44.6888 20.7958 44.6792C20.3228 44.4705 19.7981 44.4082 19.2894 44.5004C18.7825 44.5923 18.3146 44.8335 17.9457 45.1928L17.8159 45.3226C17.8158 45.3227 17.8161 45.3224 17.8159 45.3226C17.2936 45.8453 16.673 46.2605 15.9903 46.5435C15.3074 46.8266 14.5755 46.9723 13.8363 46.9723C13.097 46.9723 12.3651 46.8266 11.6822 46.5435C10.9993 46.2604 10.379 45.8456 9.85656 45.3226C9.33399 44.8003 8.9194 44.1803 8.63649 43.4978C8.35341 42.8149 8.20771 42.083 8.20771 41.3438C8.20771 40.6045 8.35341 39.8726 8.63649 39.1897C8.91956 38.5068 9.33445 37.8865 9.85745 37.3641L9.98712 37.2344C10.3465 36.8654 10.5876 36.3975 10.6796 35.8906C10.7718 35.3819 10.7095 34.8572 10.5008 34.3842L10.4959 34.3732C10.2971 33.9094 9.96711 33.5138 9.54638 33.2352C9.12625 32.9569 8.63404 32.8074 8.13018 32.805H7.75C6.25816 32.805 4.82742 32.2124 3.77252 31.1575C2.71763 30.1026 2.125 28.6718 2.125 27.18C2.125 25.6882 2.71763 24.2574 3.77252 23.2025C4.82742 22.1476 6.25816 21.555 7.75 21.555H7.93814C8.45297 21.5406 8.95189 21.3728 9.37096 21.0731C9.79326 20.7711 10.1149 20.349 10.2941 19.8617C10.3023 19.8394 10.3112 19.8174 10.3208 19.7958C10.5295 19.3228 10.5918 18.7981 10.4996 18.2894C10.4077 17.7825 10.1666 17.3147 9.80721 16.9457L9.67745 16.8159C9.15445 16.2935 8.73956 15.6732 8.45649 14.9903C8.17341 14.3074 8.02771 13.5755 8.02771 12.8363C8.02771 12.097 8.17341 11.3651 8.45649 10.6822C8.73948 9.99954 9.15422 9.37932 9.677 8.85701C10.1993 8.33422 10.8195 7.91948 11.5022 7.63649C12.1851 7.35341 12.917 7.20771 13.6562 7.20771C14.3955 7.20771 15.1274 7.35341 15.8103 7.63649C16.493 7.91948 17.1132 8.33422 17.6355 8.85701C17.6356 8.85715 17.6354 8.85686 17.6355 8.85701L17.7657 8.98723C18.1347 9.34657 18.6025 9.58766 19.1094 9.67956C19.6181 9.7718 20.1428 9.70953 20.6158 9.50078C20.7351 9.44813 20.8624 9.41671 20.9921 9.40771C21.3761 9.20575 21.7041 8.9099 21.9448 8.54638C22.2231 8.12625 22.3726 7.63404 22.375 7.13018V6.75C22.375 5.25816 22.9676 3.82742 24.0225 2.77252ZM27.75 21.125C24.6434 21.125 22.125 23.6434 22.125 26.75C22.125 29.8566 24.6434 32.375 27.75 32.375C30.8566 32.375 33.375 29.8566 33.375 26.75C33.375 23.6434 30.8566 21.125 27.75 21.125ZM19.875 26.75C19.875 22.4008 23.4008 18.875 27.75 18.875C32.0992 18.875 35.625 22.4008 35.625 26.75C35.625 31.0992 32.0992 34.625 27.75 34.625C23.4008 34.625 19.875 31.0992 19.875 26.75Z" fill="#333333"/>
</svg>
