<svg width="56" height="56" viewBox="0 0 56 56" fill="none" xmlns="http://www.w3.org/2000/svg">
<path d="M53.48 37.0213C50.3067 34.4362 46.9467 32.2341 43.4 30.3192V27.4468C43.7733 26.6809 44.1467 25.9149 44.24 25.1489C44.8934 24.766 45.36 23.8085 45.7333 22.1809C46.2 20.4575 46.2 19.3085 45.64 18.6383C45.5467 18.5426 45.36 18.3511 45.2667 18.3511V18.1596V18.0638C45.8267 14.9043 45.4534 12.6064 44.3334 11.1702C43.8667 10.5958 43.3067 10.2128 42.6534 10.0213C42.0933 9.25533 41.3467 8.58512 40.5067 8.10639C39.48 7.34044 38.1734 6.95746 36.8667 6.95746H36.12C35.4667 6.95746 34.8134 7.14895 34.2533 7.34044C33.5067 7.62767 32.8533 7.91491 32.2933 8.39363C31.4533 8.87235 30.8 9.44682 30.1467 10.117C29.0267 11.1702 28.28 12.6064 27.9067 14.1383C27.6267 15.383 27.6267 16.7234 27.9067 18.0638L28 18.3511C27.9067 18.4468 27.72 18.5426 27.6267 18.6383C27.0667 19.3085 26.9734 20.4575 27.5333 22.1809C28 23.8085 28.4667 24.766 29.0267 25.0532C29.2134 25.9149 29.4933 26.6809 29.96 27.4468V30.3192C26.4133 32.1383 22.96 34.4362 19.88 37.0213C19.3808 37.4372 18.979 37.9629 18.7044 38.5595C18.4297 39.1561 18.2893 39.8083 18.2934 40.4681V49.0851C18.2934 49.5638 18.6667 50.0426 19.2267 50.0426H54.1334C54.6 50.0426 55.0667 49.6596 55.0667 49.0851V40.4681C55.0667 39.1277 54.5067 37.883 53.48 37.0213ZM29.0267 19.883C29.4 19.883 29.68 19.7872 29.7733 19.5958C29.96 19.3085 30.0533 19.0213 29.96 18.7341C29.8667 18.4468 29.7733 18.1596 29.7733 17.7766C29.5867 16.7234 29.5867 15.6702 29.7733 14.7128C30.0533 13.4681 30.7067 12.4149 31.5467 11.5532C32.0133 10.9787 32.6667 10.5 33.2267 10.117C33.6933 9.73405 34.2533 9.44682 34.8134 9.25533C35.28 9.06384 35.7467 8.9681 36.2133 8.9681H36.8667C37.8933 8.9681 38.92 9.25533 39.8534 9.73405C40.5067 10.117 41.0667 10.5958 41.44 11.266C41.6267 11.5532 41.8134 11.7447 42.1867 11.7447C42.56 11.8404 42.84 12.0319 43.12 12.4149C43.68 13.0851 44.1467 14.5213 43.5867 17.7766C43.4934 18.0638 43.4 18.4468 43.3067 18.7341C43.2134 19.0213 43.2133 19.4043 43.4933 19.5958C43.68 19.7872 43.96 19.9787 44.24 19.9787H44.3334C44.3334 20.1702 44.4267 20.6489 44.0534 21.7979C43.68 23.2341 43.4 23.617 43.3067 23.617C42.9333 23.7128 42.6533 24 42.56 24.383C42.3733 25.2447 42.0933 26.0107 41.72 26.7766C41.6267 26.8724 41.6267 27.0638 41.6267 27.2553V30.7979C41.6267 31.2766 41.9067 31.7553 42.3734 31.9468C45.92 33.766 49.3734 35.9681 52.4534 38.5532C53.0134 39.0319 53.3867 39.7979 53.3867 40.5638V48.2234H20.0667V40.4681C20.0667 39.7021 20.44 38.9362 21 38.4575C24.08 35.8724 27.5333 33.6702 31.08 31.8511C31.5467 31.6596 31.7333 31.1809 31.7333 30.7021V27.2553C31.7333 27.0638 31.7334 26.9681 31.64 26.7766C31.1734 26.0107 30.8934 25.1489 30.8 24.2872C30.7067 23.9043 30.4267 23.617 30.1467 23.5213C30.0533 23.4255 29.7733 23.0426 29.4 21.6064C28.9333 20.4575 29.0267 19.9787 29.0267 19.883ZM16.6133 48.9894C16.6133 49.5638 16.24 50.0426 15.68 50.0426H1.86668C1.40002 50.0426 0.93335 49.6596 0.93335 49.0851V40.7553C1.02668 39.0319 2.05335 37.5958 3.54668 36.8298C4.57335 36.3511 5.60002 35.9681 6.72002 35.5851L7.09335 35.4894C8.58668 35.1064 10.1733 34.5319 11.5733 33.8617C11.6667 33.766 11.76 33.6702 11.76 33.5745V32.5213C6.72002 32.3298 5.13335 29.9362 5.13335 29.9362C4.85335 29.5532 4.94668 28.9787 5.41335 28.5958C5.60002 28.5 5.69335 28.4043 5.88002 28.4043C6.44002 28.3085 7.93335 26.8724 7.74668 21.2234C7.56002 12.6064 11.76 11.0745 13.16 10.5958C14.1867 10.2128 15.12 10.0213 16.0534 10.0213C18.0133 10.0213 19.32 10.883 19.88 11.4575H20.16C21.4667 11.4575 22.68 11.9362 23.6133 12.8936C25.3867 14.7128 26.1334 18.3511 25.6667 22.9468C25.2 27.8298 27.5333 28.6915 27.6267 28.6915C27.9067 28.7872 28.1867 29.0745 28.28 29.3617C28.3733 29.6489 28.28 30.0319 28.0933 30.2234C25.9467 32.4255 22.0267 32.617 20.9067 32.617H20.72C20.16 32.617 19.7867 32.1383 19.7867 31.6596C19.7867 31.1809 20.16 30.7021 20.72 30.7021H20.9067C21.4667 30.7021 24.08 30.6064 25.8533 29.6489C24.7334 28.6915 23.6133 26.6809 23.9867 22.7553C24.36 18.7341 23.8 15.5745 22.4 14.2341C21.84 13.6596 21 13.2766 20.16 13.2766H19.6C19.32 13.2766 19.04 13.1809 18.9467 12.9894C18.76 12.7979 17.92 11.9362 16.24 11.9362C15.5867 11.9362 14.84 12.1277 14.0934 12.4149C12.7867 12.8936 9.70668 14.1383 9.89335 21.4149C9.98668 25.3404 9.33335 28.117 8.02668 29.5532L7.84002 29.7447C8.68002 30.3192 10.2667 30.8936 12.6933 30.8936H12.9733C13.44 30.8936 13.9067 31.2766 13.9067 31.8511V33.8617C13.9067 34.5319 13.5333 35.2021 12.9733 35.5851L12.7867 35.6809C11.2 36.4468 9.61335 37.0213 7.93335 37.5L7.56002 37.5958C6.62668 37.883 5.60002 38.266 4.76002 38.7447C3.92002 39.1277 3.26668 40.0851 3.17335 41.0426V48.1277H16.0534C16.1467 48.1277 16.52 48.5107 16.6133 48.9894Z" fill="#333333"/>
</svg>
