<svg width="56" height="56" viewBox="0 0 56 56" fill="none" xmlns="http://www.w3.org/2000/svg">
<path d="M12.5 21.1H40.8C41.4 21.1 41.8 20.7 41.8 20.1C41.8 19.5 41.4 19.1 40.8 19.1H12.5C11.9 19.1 11.5 19.5 11.5 20.1C11.5 20.7 12 21.1 12.5 21.1ZM29.5 33.2H12.5C11.9 33.2 11.5 33.6 11.5 34.2C11.5 34.8 11.9 35.2 12.5 35.2H29.5C30.1 35.2 30.5 34.8 30.5 34.2C30.5 33.6 30.1 33.2 29.5 33.2ZM40.9 26.4H12.5C11.9 26.4 11.5 26.8 11.5 27.4C11.5 28 11.9 28.4 12.5 28.4H40.8C41.4 28.4 41.8 28 41.8 27.4C41.8 26.8 41.4 26.4 40.9 26.4Z" fill="#333333"/>
<path d="M41.8 9H12.2C7.7 9 4 12.7 4 17.3V37.4C4 42 7.7 45.7 12.2 45.7H23L31.2 54.3C31.5 54.7 32 54.9 32.5 54.9C33.1 54.9 33.5 54.6 33.8 54.2C33.9 54.1 34 53.9 34 53.8L36.3 45.6H41.9C46.4 45.6 50.1 41.9 50.1 37.3V17.3C50 12.7 46.3 9 41.8 9ZM34.5 44.5L32.3 52.6L24.2 44.1C24 43.9 23.8 43.8 23.5 43.8H12.2C8.8 43.8 6 41 6 37.5V17.3C6 13.8 8.8 11 12.2 11H41.7C45.2 11 48 13.8 48 17.3V37.4C48 40.9 45.2 43.7 41.8 43.7H35.5C35.1 43.8 34.7 44 34.5 44.5Z" fill="#333333"/>
</svg>
