<svg width="56" height="56" viewBox="0 0 56 56" fill="none" xmlns="http://www.w3.org/2000/svg">
<path d="M11 52.9C10.5 52.9 10.1 52.5 10.1 52V46.7H4.9C4.4 46.8 4 46.5 4 46V13C4 12.6 4.3 12.2 4.8 12.1H50.1C50.6 12.1 51 12.5 51 13V46C51 46.5 50.6 46.9 50.1 46.9H19.8L11.5 52.8C11.3 52.9 11.2 52.9 11 52.9ZM5.7 45.1H11C11.5 45.1 11.9 45.5 11.9 46V50.5L19.1 45.4C19.2 45.3 19.4 45.2 19.6 45.2H49.3V13.8H5.7V45.1ZM10.9 37.6C10.5 37.6 10 37.2 10 36.8C10 36.6 10.1 36.4 10.2 36.2C10.5 36 10.7 36 10.9 35.9H44.1C44.6 35.9 45 36.3 45 36.8C45 37.3 44.6 37.7 44.1 37.7L10.9 37.6ZM10.9 30.3C10.5 30.3 10 29.9 10 29.5C10 29.3 10.1 29.1 10.2 28.9C10.4 28.7 10.6 28.7 10.8 28.6H44C44.2 28.6 44.5 28.7 44.6 28.8C44.8 29 44.8 29.2 44.8 29.4C44.8 29.9 44.4 30.3 43.9 30.3H10.9ZM10.9 23C10.5 23 10 22.6 10 22.2C10 22 10.1 21.8 10.2 21.6C10.4 21.4 10.6 21.4 10.8 21.3H44C44.2 21.3 44.5 21.4 44.6 21.5C44.8 21.7 44.8 21.9 44.8 22.1C44.8 22.6 44.4 23 43.9 23H10.9Z" fill="#333333"/>
</svg>
