<svg width="56" height="56" viewBox="0 0 56 56" fill="none" xmlns="http://www.w3.org/2000/svg">
<path d="M27.75 33.5C31.4779 33.5 34.5 30.4779 34.5 26.75C34.5 23.0221 31.4779 20 27.75 20C24.0221 20 21 23.0221 21 26.75C21 30.4779 24.0221 33.5 27.75 33.5Z" stroke="#333333" stroke-width="2.25" stroke-linecap="round" stroke-linejoin="round"/>
<path d="M44.65 33.75C44.3505 34.4286 44.2611 35.1814 44.3935 35.9113C44.5258 36.6412 44.8738 37.3147 45.3925 37.845L45.5275 37.98C45.9459 38.3979 46.2778 38.8942 46.5043 39.4405C46.7307 39.9868 46.8473 40.5724 46.8473 41.1638C46.8473 41.7551 46.7307 42.3407 46.5043 42.887C46.2778 43.4333 45.9459 43.9296 45.5275 44.3475C45.1096 44.7659 44.6133 45.0978 44.067 45.3243C43.5207 45.5507 42.9351 45.6673 42.3438 45.6673C41.7524 45.6673 41.1668 45.5507 40.6205 45.3243C40.0742 45.0978 39.5779 44.7659 39.16 44.3475L39.025 44.2125C38.4947 43.6938 37.8212 43.3458 37.0913 43.2135C36.3614 43.0811 35.6086 43.1705 34.93 43.47C34.2645 43.7552 33.697 44.2288 33.2972 44.8325C32.8974 45.4361 32.6829 46.1435 32.68 46.8675V47.25C32.68 48.4435 32.2059 49.5881 31.362 50.432C30.5181 51.2759 29.3735 51.75 28.18 51.75C26.9865 51.75 25.8419 51.2759 24.998 50.432C24.1541 49.5881 23.68 48.4435 23.68 47.25V47.0475C23.6626 46.3028 23.4215 45.5805 22.9881 44.9746C22.5548 44.3687 21.9492 43.9071 21.25 43.65C20.5714 43.3505 19.8186 43.2611 19.0887 43.3935C18.3588 43.5258 17.6853 43.8738 17.155 44.3925L17.02 44.5275C16.6021 44.9459 16.1058 45.2778 15.5595 45.5043C15.0132 45.7307 14.4276 45.8473 13.8362 45.8473C13.2449 45.8473 12.6593 45.7307 12.113 45.5043C11.5667 45.2778 11.0704 44.9459 10.6525 44.5275C10.2341 44.1096 9.90219 43.6133 9.67573 43.067C9.44927 42.5207 9.33271 41.9351 9.33271 41.3438C9.33271 40.7524 9.44927 40.1668 9.67573 39.6205C9.90219 39.0742 10.2341 38.5779 10.6525 38.16L10.7875 38.025C11.3062 37.4947 11.6542 36.8212 11.7865 36.0913C11.9189 35.3614 11.8295 34.6086 11.53 33.93C11.2448 33.2645 10.7712 32.697 10.1675 32.2972C9.56389 31.8974 8.85652 31.6829 8.1325 31.68H7.75C6.55653 31.68 5.41193 31.2059 4.56802 30.362C3.72411 29.5181 3.25 28.3735 3.25 27.18C3.25 25.9865 3.72411 24.8419 4.56802 23.998C5.41193 23.1541 6.55653 22.68 7.75 22.68H7.9525C8.69724 22.6626 9.41951 22.4215 10.0254 21.9881C10.6313 21.5548 11.0929 20.9492 11.35 20.25C11.6495 19.5714 11.7389 18.8186 11.6065 18.0887C11.4742 17.3588 11.1262 16.6853 10.6075 16.155L10.4725 16.02C10.0541 15.6021 9.72219 15.1058 9.49573 14.5595C9.26927 14.0132 9.15271 13.4276 9.15271 12.8362C9.15271 12.2449 9.26927 11.6593 9.49573 11.113C9.72219 10.5667 10.0541 10.0704 10.4725 9.6525C10.8904 9.23411 11.3867 8.90219 11.933 8.67573C12.4793 8.44927 13.0649 8.33271 13.6562 8.33271C14.2476 8.33271 14.8332 8.44927 15.3795 8.67573C15.9258 8.90219 16.4221 9.23411 16.84 9.6525L16.975 9.7875C17.5053 10.3062 18.1788 10.6542 18.9087 10.7865C19.6386 10.9189 20.3914 10.8295 21.07 10.53H21.25C21.9155 10.2448 22.483 9.7712 22.8828 9.16755C23.2826 8.56389 23.4971 7.85652 23.5 7.1325V6.75C23.5 5.55653 23.9741 4.41193 24.818 3.56802C25.6619 2.72411 26.8065 2.25 28 2.25C29.1935 2.25 30.3381 2.72411 31.182 3.56802C32.0259 4.41193 32.5 5.55653 32.5 6.75V6.9525C32.5029 7.67652 32.7174 8.38389 33.1172 8.98755C33.517 9.5912 34.0845 10.0648 34.75 10.35C35.4286 10.6495 36.1814 10.7389 36.9113 10.6065C37.6412 10.4742 38.3147 10.1262 38.845 9.6075L38.98 9.4725C39.3979 9.05411 39.8942 8.72219 40.4405 8.49573C40.9868 8.26927 41.5724 8.15271 42.1638 8.15271C42.7551 8.15271 43.3407 8.26927 43.887 8.49573C44.4333 8.72219 44.9296 9.05411 45.3475 9.4725C45.7659 9.89043 46.0978 10.3867 46.3243 10.933C46.5507 11.4793 46.6673 12.0649 46.6673 12.6562C46.6673 13.2476 46.5507 13.8332 46.3243 14.3795C46.0978 14.9258 45.7659 15.4221 45.3475 15.84L45.2125 15.975C44.6938 16.5053 44.3458 17.1788 44.2135 17.9087C44.0811 18.6386 44.1705 19.3914 44.47 20.07V20.25C44.7552 20.9155 45.2288 21.483 45.8325 21.8828C46.4361 22.2826 47.1435 22.4971 47.8675 22.5H48.25C49.4435 22.5 50.5881 22.9741 51.432 23.818C52.2759 24.6619 52.75 25.8065 52.75 27C52.75 28.1935 52.2759 29.3381 51.432 30.182C50.5881 31.0259 49.4435 31.5 48.25 31.5H48.0475C47.3235 31.5029 46.6161 31.7174 46.0125 32.1172C45.4088 32.517 44.9352 33.0845 44.65 33.75V33.75Z" stroke="#333333" stroke-width="2.25" stroke-linecap="round" stroke-linejoin="round"/>
</svg>
