<svg width="56" height="56" viewBox="0 0 56 56" fill="none" xmlns="http://www.w3.org/2000/svg">
<path fill-rule="evenodd" clip-rule="evenodd" d="M28 54C42.3594 54 54 42.3594 54 28C54 13.6406 42.3594 2 28 2C13.6406 2 2 13.6406 2 28C2 42.3594 13.6406 54 28 54ZM28 56C43.464 56 56 43.464 56 28C56 12.536 43.464 0 28 0C12.536 0 0 12.536 0 28C0 43.464 12.536 56 28 56Z" fill="#333333"/>
<path d="M41.0626 17.7071C40.6721 17.3166 40.0389 17.3166 39.6484 17.7071L21.7073 35.6482C21.3167 36.0387 21.3167 36.6719 21.7073 37.0624C22.0978 37.453 22.7309 37.453 23.1215 37.0624L41.0626 19.1213C41.4531 18.7308 41.4531 18.0976 41.0626 17.7071Z" fill="#333333"/>
<path d="M14.707 28.7071C15.0975 28.3166 15.7306 28.3166 16.1212 28.7071L23.0623 35.6482C23.4528 36.0387 23.4528 36.6719 23.0623 37.0624C22.6718 37.453 22.0386 37.453 21.6481 37.0624L14.707 30.1213C14.3164 29.7308 14.3164 29.0976 14.707 28.7071Z" fill="#333333"/>
</svg>
