<svg width="24" height="24" viewBox="0 0 24 24" fill="none" xmlns="http://www.w3.org/2000/svg">
<path d="M7.29289 11.6652C7.68342 11.2747 8.31658 11.2747 8.70711 11.6652L10.9917 13.9498C11.3823 14.3404 11.3823 14.9735 10.9917 15.364C10.6012 15.7546 9.96804 15.7546 9.57751 15.364L7.29289 13.0794C6.90237 12.6889 6.90237 12.0557 7.29289 11.6652Z"/>
<path d="M16.7651 8.29289C16.3746 7.90237 15.7414 7.90237 15.3509 8.29289L9.69402 13.9497C9.3035 14.3403 9.3035 14.9734 9.69402 15.364C10.0845 15.7545 10.7177 15.7545 11.1082 15.364L16.7651 9.70711C17.1556 9.31658 17.1556 8.68342 16.7651 8.29289Z"/>
</svg>
