<svg width="24" height="24" viewBox="0 0 24 24" fill="none" xmlns="http://www.w3.org/2000/svg">
<path d="M14.475 7.61092C14.8655 7.22039 15.4987 7.22039 15.8892 7.61092C16.2798 8.00144 16.2798 8.63461 15.8892 9.02513L9.52527 15.3891C9.13475 15.7796 8.50159 15.7796 8.11106 15.3891C7.72054 14.9986 7.72054 14.3654 8.11106 13.9749L14.475 7.61092Z" fill="black"/>
<path d="M9.52522 7.61092C9.1347 7.22039 8.50153 7.22039 8.11101 7.61092C7.72048 8.00144 7.72048 8.63461 8.11101 9.02513L14.475 15.3891C14.8655 15.7796 15.4987 15.7796 15.8892 15.3891C16.2797 14.9986 16.2797 14.3654 15.8892 13.9749L9.52522 7.61092Z" fill="black"/>
</svg>
