<svg width="40" height="40" viewBox="0 0 40 40" fill="none" xmlns="http://www.w3.org/2000/svg">
<path d="M39.1 18.9H36.5V10.7C36.5 8.8 35 7.2 33.1 7.2H32.6V3.5C32.6 2.5 32.1 1.5 31.3 0.7C30.7 0.2 30 0 29.2 0C28.9 0 28.6 2.23517e-08 28.3 0.1L2.6 6.8C1 7.1 0 8.5 0 10.2V36.6C0 38.4 1.5 40 3.4 40H33C34.9 40 36.4 38.4 36.4 36.5V28.3H39C39.6 28.3 39.9 27.9 39.9 27.4V19.9C40 19.3 39.6 18.9 39.1 18.9ZM1.9 10.7C1.9 9.8 2.6 9.1 3.5 9.1H33C33.9 9.1 34.6 9.8 34.6 10.7V18.9H30.5C28.6 18.9 27.1 20.5 27.1 22.4V24.8C27.1 26.7 28.6 28.3 30.5 28.3H34.6V36.5C34.6 37.4 33.9 38.1 33 38.1H3.4C2.5 38.1 1.8 37.4 1.8 36.5V10.7H1.9ZM28.9 24.8V22.4C28.9 21.5 29.6 20.8 30.5 20.8H38.2V26.4H30.5C29.6 26.4 28.9 25.7 28.9 24.8ZM30.7 3.6V7.3H8.4L28.7 2C28.8 2 28.9 1.9 29.1 1.9C29.4 1.9 29.7 2 30 2.3C30.4 2.6 30.7 3.1 30.7 3.6ZM30.9 24.5C30.3 24.5 30 24.1 30 23.6C30 23.1 30.5 22.7 30.9 22.7H32.1C32.7 22.7 33 23.1 33 23.6C33 24.1 32.6 24.5 32.1 24.5H30.9Z" fill="black"/>
</svg>
