<svg width="40" height="41" viewBox="0 0 40 41" fill="none" xmlns="http://www.w3.org/2000/svg">
<path d="M11.2 36.8C11.2 36 11.8 35.4 12.6 35.4C13.4 35.4 14 36 14 36.8C14 37.6 13.4 38.2 12.6 38.2C11.9 38.2 11.2 37.6 11.2 36.8ZM40 22.3V36.3C40 38.9 37.9 41 35.3 41H20.7C20.5 41 20.3 41.1 20.1 41.1H5.1C4.7 41.1 4.3 41.1 4 41C2 40.6 0.4 39 0.1 37C0 36.6 0 36.3 0 35.9V5.1C0 2.3 2.3 0 5.2 0H20.2C23 0 25.4 2.3 25.4 5.1V17.6H35.4C37.9 17.6 40 19.7 40 22.3ZM1.9 4.7H23.4C23.2 3.1 21.8 1.9 20.1 1.9H5.1C3.5 1.9 2.1 3.1 1.9 4.7ZM1.9 32.6H23.5V6.5H1.9V32.6ZM1.9 35.9C1.9 36 1.9 36.1 1.9 36.2V36.3C1.9 36.4 1.9 36.5 1.9 36.6C2.2 37.8 3.1 38.7 4.3 39C4.4 39 4.5 39 4.6 39H20.6C22.1 38.7 23.3 37.4 23.3 35.8V34.4H1.9V35.9ZM38.1 22.3C38.1 20.8 36.8 19.5 35.3 19.5H25.3V35.9C25.3 37.1 24.9 38.2 24.1 39.1H35.3C36.9 39.1 38.1 37.8 38.1 36.3V22.3ZM35.3 27C34.8 27 34.4 27.4 34.4 27.9V29.8C34.4 30.3 34.8 30.7 35.3 30.7C35.8 30.7 36.2 30.3 36.2 29.8V27.9C36.2 27.4 35.8 27 35.3 27Z" fill="#333333"/>
</svg>
