<svg width="72" height="72" viewBox="0 0 72 72" fill="none" xmlns="http://www.w3.org/2000/svg">
<path d="M34.9998 19.0378C26.7998 19.0378 19.2998 21.8378 13.3998 26.2378C12.9998 26.5378 12.8998 27.2378 13.1998 27.6378C13.4998 28.0378 14.1998 28.1378 14.5998 27.8378C20.0998 23.6378 27.1998 21.0378 34.9998 21.0378C42.7998 21.0378 49.8998 23.6378 55.3998 27.8378C55.7998 28.1378 56.4998 28.0378 56.7998 27.6378C57.0998 27.2378 56.9998 26.5378 56.5998 26.2378C50.6998 21.7378 43.1998 19.0378 34.9998 19.0378ZM34.9998 28.5378C29.0998 28.5378 23.5998 30.3378 19.3998 33.7378C18.8998 34.0378 18.7998 34.7378 19.1998 35.2378C19.5998 35.6378 20.2998 35.7378 20.6998 35.3378C24.5998 32.2378 29.5998 30.5378 35.0998 30.5378C40.5998 30.5378 45.5998 32.1378 49.4998 35.3378C49.8998 35.7378 50.5998 35.7378 50.9998 35.2378C51.3998 34.8378 51.1998 34.0378 50.7998 33.7378C46.3998 30.2378 40.8998 28.5378 34.9998 28.5378ZM34.9998 37.5378C31.3998 37.5378 27.9998 38.6378 25.3998 40.7378C24.9998 41.0378 24.8998 41.7378 25.1998 42.1378C25.4998 42.5378 26.1998 42.6378 26.5998 42.3378C28.7998 40.5378 31.7998 39.5378 34.9998 39.5378C38.1998 39.5378 41.0998 40.5378 43.3998 42.3378C43.7998 42.6378 44.4998 42.5378 44.7998 42.1378C45.0998 41.7378 44.9998 41.0378 44.5998 40.7378C41.9998 38.6378 38.5998 37.5378 34.9998 37.5378ZM34.9998 46.0378C32.1998 46.0378 29.9998 48.3378 29.9998 51.0378C29.9998 53.7378 32.2998 56.0378 34.9998 56.0378C37.6998 56.0378 39.9998 53.7378 39.9998 51.0378C39.9998 48.3378 37.7998 46.0378 34.9998 46.0378ZM34.9998 48.0378C36.6998 48.0378 37.9998 49.3378 37.9998 51.0378C37.9998 52.7378 36.6998 54.0378 34.9998 54.0378C33.2998 54.0378 31.9998 52.7378 31.9998 51.0378C31.9998 49.3378 33.2998 48.0378 34.9998 48.0378Z" fill="#333333"/>
</svg>
