<svg width="72" height="72" viewBox="0 0 72 72" fill="none" xmlns="http://www.w3.org/2000/svg">
<path d="M54.2 53.9999C53.8 53.9999 53.5 53.7999 53.4 53.3999L49.7 42.1999C49.4 41.3999 48.4 40.6999 47.6 40.6999H39.4L41.8 48.3999C41.9 48.6999 41.8 48.9999 41.6 49.1999L37.2 53.5999C37 53.7999 36.8 53.7999 36.6 53.7999C36.4 53.7999 36.2 53.6999 36 53.5999L31.6 49.1999C31.4 48.9999 31.3 48.6999 31.4 48.3999L33.8 40.6999H25.5C24.6 40.6999 23.7 41.3999 23.4 42.1999L19.6 53.3999C19.5 53.7999 19.2 53.9999 18.8 53.9999C18.7 53.9999 18.6 53.9999 18.5 53.9999C18.3 53.8999 18.1 53.7999 18 53.5999C18 53.2999 18 53.0999 18 52.8999L21.7 41.7999C22.2 40.2999 23.8 39.0999 25.4 39.0999H47.5C49.1 39.0999 50.7 40.2999 51.2 41.7999L55 52.8999C55.1 53.0999 55.1 53.2999 55 53.4999C54.9 53.6999 54.7 53.7999 54.5 53.8999C54.3 53.9999 54.2 53.9999 54.2 53.9999ZM33 48.4999L36.5 51.9999L40 48.4999L37.6 40.6999H35.5L33 48.4999ZM26.5 53.9999C26.4 53.9999 26.4 53.9999 26.3 53.9999C26.1 53.8999 25.9 53.7999 25.8 53.5999C25.7 53.3999 25.7 53.1999 25.7 52.9999L26.9 48.5999C27 48.1999 27.3 47.9999 27.7 47.9999C27.8 47.9999 27.8 47.9999 27.9 47.9999C28.1 48.0999 28.3 48.1999 28.4 48.3999C28.5 48.5999 28.5 48.7999 28.5 48.9999L27.3 53.3999C27.2 53.6999 26.9 53.9999 26.5 53.9999ZM46.5 53.9999C46.1 53.9999 45.8 53.6999 45.7 53.3999L44.5 48.9999C44.4 48.7999 44.5 48.5999 44.6 48.3999C44.7 48.1999 44.9 48.0999 45.1 47.9999C45.2 47.9999 45.2 47.9999 45.3 47.9999C45.7 47.9999 46 48.2999 46.1 48.5999L47.3 52.9999C47.4 53.1999 47.3 53.3999 47.2 53.5999C47.1 53.7999 46.9 53.8999 46.7 53.9999C46.6 53.9999 46.6 53.9999 46.5 53.9999ZM36.5 36.2999C31.2 36.2999 26.8 31.9999 26.8 26.5999C26.8 21.2999 31.1 16.8999 36.5 16.8999C41.8 16.8999 46.2 21.1999 46.2 26.5999C46.2 31.9999 41.8 36.2999 36.5 36.2999ZM36.5 18.6999C32.1 18.6999 28.5 22.2999 28.5 26.6999C28.5 31.0999 32.1 34.6999 36.5 34.6999C40.9 34.6999 44.5 31.0999 44.5 26.6999C44.5 22.2999 40.9 18.6999 36.5 18.6999Z" fill="#333333"/>
</svg>
