<svg width="72" height="72" viewBox="0 0 72 72" fill="none" xmlns="http://www.w3.org/2000/svg">
<path d="M68.8 41.8C68.6 38.9 62.6 35.2 60.4 33.9L54.3 26.9C53.7 26 49.8 20.3 46.5 20.3H32.9C32.8 19.2 32.5 18.3 32 17.8C31.4 17.3 30.7 17 29.6 17H27.1C25.5 17 23.3 17 20.8 17C19.2 17 18 17.5 17.2 18.4C16.6 19.1 16.5 19.8 16.4 20.4H6.4C4 20.4 2 22.3 2 24.7V47.7C2 50.4 4.2 52.5 6.8 52.5H13.7C14.1 55 16.3 57 19 57C21.7 57 23.8 55.1 24.3 52.5H50.3C50.7 55 52.9 57 55.6 57C58.3 57 60.4 55.1 60.9 52.5H63.5C64.6 52.5 65.9 52.3 67.1 51.6C68 51.1 68.6 50.2 68.9 49.2C69.2 47.1 69 44.6 68.8 41.8ZM18.7 19.5C19.1 19 19.8 18.8 20.9 18.8C23.4 18.8 25.5 18.8 27.2 18.8H29.7C30.4 18.8 30.6 19 30.8 19.1C31 19.3 31.1 19.7 31.2 20.2H18.4C18.4 20 18.5 19.7 18.7 19.5ZM59.4 35.5C59.5 35.5 59.5 35.6 59.6 35.6H48.3V31.1H55.6L59.4 35.5ZM18.9 55.2C16.9 55.2 15.3 53.6 15.3 51.6C15.3 49.6 16.9 48 18.9 48C20.9 48 22.5 49.6 22.5 51.6C22.5 53.6 20.9 55.2 18.9 55.2ZM55.4 55.2C53.4 55.2 51.8 53.6 51.8 51.6C51.8 49.6 53.4 48 55.4 48C57.4 48 59 49.6 59 51.6C59 53.6 57.4 55.2 55.4 55.2ZM66.8 48.8C66.6 49.3 66.3 49.8 65.8 50.1C64.9 50.7 63.9 50.8 63.2 50.8H60.6C60.2 48.3 58 46.3 55.3 46.3C52.7 46.3 50.5 48.2 50 50.8H24C23.6 48.3 21.4 46.3 18.7 46.3C16.1 46.3 13.9 48.2 13.4 50.8H6.8C5.1 50.8 3.8 49.4 3.8 47.8V24.8C3.8 23.4 5 22.2 6.4 22.2H46.5C48.4 22.2 51.4 25.8 52.9 28.1L54 29.4H48.3C47.5 29.4 46.5 30 46.5 31V35.8C46.5 36.8 47.5 37.4 48.3 37.4H62.4C64.2 38.7 65.8 40 66.5 41H64.3V42.8H67C67.2 45 67.2 47.2 66.8 48.8ZM42.9 29.3H20.7H18.9H8.2C7.4 29.3 6.4 29.9 6.4 30.9V35.7C6.4 36.7 7.4 37.3 8.2 37.3H18.9H20.7H43C43.8 37.3 44.8 36.7 44.8 35.7V30.9C44.7 29.9 43.7 29.3 42.9 29.3ZM18.9 35.6H8.2V31.1H18.9V35.6ZM20.7 35.6V31.1H31.4V35.6H20.7ZM42.9 35.6H33.1V31.1H42.9V35.6ZM18.9 50.2C18.1 50.2 17.5 50.8 17.5 51.6C17.5 52.4 18.1 53 18.9 53C19.7 53 20.3 52.4 20.3 51.6C20.3 50.8 19.7 50.2 18.9 50.2ZM18.9 52C18.7 52 18.5 51.8 18.5 51.6C18.5 51.4 18.7 51.2 18.9 51.2C19.1 51.2 19.3 51.4 19.3 51.6C19.3 51.8 19.1 52 18.9 52ZM55.4 50.2C54.6 50.2 54 50.8 54 51.6C54 52.4 54.6 53 55.4 53C56.2 53 56.8 52.4 56.8 51.6C56.8 50.8 56.2 50.2 55.4 50.2ZM55.4 52C55.2 52 55 51.8 55 51.6C55 51.4 55.2 51.2 55.4 51.2C55.6 51.2 55.8 51.4 55.8 51.6C55.8 51.8 55.6 52 55.4 52Z" fill="#333333"/>
</svg>
