<svg width="72" height="72" viewBox="0 0 72 72" fill="none" xmlns="http://www.w3.org/2000/svg">
<path d="M13.7 55C13.2 55 12.8 54.7 12.7 54.2L12 50C12 49.7 12 49.4 12.2 49.2C12.4 49 12.7 48.8 13 48.8H15.3V23.8C15.3 22.3 16.5 21 18.1 21H54.9C56.5 21 57.7 22.3 57.7 23.8V48.8H60C60.3 48.8 60.6 48.9 60.7 49.1C61 49.4 61 49.7 61 50L60.3 54.2C60.2 54.7 59.8 55 59.3 55H13.7ZM14.5 53.1H58.5L58.9 50.8H14.1L14.5 53.1ZM18.1 22.9C17.6 22.9 17.2 23.3 17.2 23.8V48.8H55.8V23.8C55.8 23.3 55.4 22.9 54.9 22.9H18.1ZM36.5 26.9C35.8 26.9 35.2 26.3 35.2 25.6C35.2 24.9 35.8 24.3 36.5 24.3C37.2 24.3 37.8 24.9 37.8 25.6C37.8 26.4 37.2 26.9 36.5 26.9Z" fill="#333333"/>
</svg>
