<svg width="40" height="40" viewBox="0 0 40 40" fill="none" xmlns="http://www.w3.org/2000/svg">
<path d="M19.525 7.60449C23.3817 7.60449 23.8325 7.60449 25.3851 7.70466C26.7876 7.75475 27.5389 8.00518 28.0397 8.20553C28.7409 8.45596 29.1917 8.80656 29.6926 9.30743C30.1934 9.80829 30.494 10.3092 30.7945 10.9603C30.9948 11.4611 31.2453 12.2625 31.2953 13.6649C31.3454 15.2176 31.3955 15.6684 31.3955 19.525C31.3955 23.3817 31.3955 23.8325 31.2953 25.3851C31.2453 26.7876 30.9948 27.5889 30.7945 28.0898C30.544 28.791 30.1934 29.2418 29.6926 29.7427C29.1917 30.2435 28.6908 30.544 28.0397 30.8446C27.5389 31.0449 26.7375 31.2953 25.3351 31.3454C23.7824 31.3955 23.3316 31.4456 19.475 31.4456C15.6183 31.4456 15.1675 31.4456 13.6149 31.3454C12.2124 31.2953 11.4111 31.0449 10.9102 30.8446C10.209 30.5941 9.7582 30.2435 9.25734 29.7427C8.75648 29.2418 8.45596 28.7409 8.15544 28.0898C7.9551 27.5889 7.70466 26.7876 7.65458 25.3851C7.60449 23.8325 7.5544 23.3817 7.5544 19.525C7.5544 15.6684 7.5544 15.2176 7.65458 13.6649C7.70466 12.2625 7.9551 11.4611 8.15544 10.9603C8.40587 10.2591 8.75648 9.80829 9.25734 9.30743C9.7582 8.80656 10.2591 8.50604 10.9102 8.20553C11.4111 8.00518 12.2124 7.75475 13.6149 7.70466C15.1675 7.60449 15.6183 7.60449 19.525 7.60449ZM19.525 5C15.5682 5 15.0674 5 13.5147 5.10017C11.962 5.15026 10.9102 5.40069 10.0086 5.7513C9.05699 6.15199 8.25561 6.65285 7.45423 7.45423C6.65285 8.25561 6.15199 9.05699 5.7513 10.0086C5.40069 10.9102 5.15026 11.962 5.10017 13.5147C5 15.0674 5 15.5682 5 19.525C5 23.4819 5 23.9827 5.10017 25.4853C5.15026 27.038 5.40069 28.0898 5.7513 28.9914C6.1019 29.943 6.60276 30.7444 7.40415 31.5458C8.20553 32.3471 9.00691 32.848 9.95855 33.1986C10.8601 33.5492 11.9119 33.7997 13.4646 33.8497C15.0173 33.8998 15.5181 33.9499 19.4249 33.9499C23.3316 33.9499 23.8826 33.9499 25.3851 33.8497C26.9378 33.7997 27.9896 33.5492 28.8912 33.1986C29.8428 32.848 30.6442 32.3471 31.4456 31.5458C32.247 30.7444 32.7478 29.943 33.0984 28.9914C33.449 28.0898 33.6995 27.038 33.7496 25.4853C33.7997 23.9326 33.8497 23.4318 33.8497 19.525C33.8497 15.6183 33.8497 15.0674 33.7496 13.5648C33.6995 12.0121 33.449 10.9603 33.0984 10.0587C32.7478 9.10708 32.247 8.3057 31.4456 7.50432C30.6442 6.70294 29.8428 6.20207 28.8912 5.85147C27.9896 5.50086 26.9378 5.25043 25.3851 5.20035C23.9326 5 23.4318 5 19.525 5Z" fill="#333333"/>
<path d="M19.525 12.0622C15.4179 12.0622 12.0621 15.418 12.0621 19.525C12.0621 23.6321 15.3678 26.9378 19.525 26.9378C23.6822 26.9378 26.9378 23.6321 26.9378 19.525C26.9378 15.418 23.6321 12.0622 19.525 12.0622ZM19.525 24.3333C16.8704 24.3333 14.6666 22.1796 14.6666 19.475C14.6666 16.8204 16.8203 14.6166 19.525 14.6166C22.2297 14.6166 24.3834 16.7703 24.3834 19.475C24.3333 22.1796 22.1796 24.3333 19.525 24.3333Z" fill="#333333"/>
<path d="M27.2384 13.5147C28.2065 13.5147 28.9914 12.7298 28.9914 11.7617C28.9914 10.7935 28.2065 10.0086 27.2384 10.0086C26.2702 10.0086 25.4854 10.7935 25.4854 11.7617C25.4854 12.7298 26.2702 13.5147 27.2384 13.5147Z" fill="#333333"/>
</svg>
