<svg width="46" height="46" viewBox="0 0 46 46" fill="none" xmlns="http://www.w3.org/2000/svg">
<path d="M22.6567 0C35.7015 0 46 10.2985 46 23.3433C46 35.7015 35.7015 46 22.6567 46C10.2985 46 0 35.7015 0 23.3433C0 10.2985 10.2985 0 22.6567 0ZM13.0448 37.7612H15.1045C15.791 37.7612 15.791 37.0746 15.791 37.0746V34.3284C20.597 35.0149 24.7164 35.0149 29.5224 34.3284V36.3881C29.5224 37.0746 30.209 37.0746 30.209 37.0746H32.2687C32.9552 37.0746 32.9552 36.3881 32.9552 36.3881V34.3284C34.3284 34.3284 35.0149 33.6418 35.7015 32.9552C35.7015 30.8955 35.7015 29.5224 35.7015 27.4627C35.7015 27.4627 35.7015 26.7761 35.0149 26.7761C35.0149 24.7164 35.0149 22.6567 34.3284 19.9104H35.0149H35.7015C35.7015 19.9104 36.3881 19.9104 36.3881 19.2239V18.5373V17.1642C36.3881 16.4776 35.7015 16.4776 35.7015 16.4776C35.0149 16.4776 35.0149 16.4776 35.0149 17.1642V19.2239C35.0149 15.791 34.3284 13.0448 34.3284 10.2985C34.3284 8.92537 33.6418 8.23881 32.2687 8.23881C26.0896 8.23881 19.9104 8.23881 14.4179 8.23881C13.0448 8.23881 12.3582 8.92537 12.3582 10.2985C11.6716 13.0448 10.9851 15.791 10.9851 18.5373H10.2985V16.4776C10.2985 16.4776 10.2985 15.791 9.61194 15.791C8.92537 15.791 8.92537 16.4776 8.92537 16.4776V17.8507C8.92537 17.8507 8.23881 17.8507 8.23881 18.5373V19.2239C8.23881 19.2239 8.23881 19.9104 8.92537 19.9104H9.61194H10.2985H10.9851C10.9851 21.9701 10.9851 24.7164 10.9851 26.7761C10.2985 26.7761 9.61194 27.4627 9.61194 27.4627C9.61194 29.5224 10.2985 30.8955 10.2985 32.2687C10.9851 33.6418 10.9851 34.3284 12.3582 34.3284V36.3881C12.3582 37.0746 12.3582 37.7612 13.0448 37.7612ZM12.3582 24.0299C12.3582 24.7164 12.3582 25.403 12.3582 26.0896C12.3582 26.7761 13.0448 27.4627 13.0448 27.4627C13.7313 27.4627 15.1045 27.4627 15.791 27.4627C16.4776 27.4627 16.4776 27.4627 15.791 26.7761C15.791 26.0896 15.1045 25.403 15.1045 24.7164C14.4179 24.0299 13.7313 23.3433 13.0448 23.3433C12.3582 23.3433 12.3582 22.6567 12.3582 24.0299ZM28.1493 29.5224C28.8358 28.8358 28.8358 28.8358 28.8358 29.5224C29.5224 29.5224 29.5224 30.209 28.8358 30.209C28.8358 30.209 28.8358 30.8955 28.1493 30.8955L27.4627 31.5821L26.7761 32.2687L26.0896 32.9552L25.403 33.6418C25.403 33.6418 24.7164 33.6418 24.7164 34.3284H24.0299H23.3433H22.6567H21.9701H21.2836H20.597H19.9104C19.9104 34.3284 19.2239 34.3284 19.2239 33.6418C19.2239 33.6418 18.5373 33.6418 18.5373 32.9552C18.5373 32.9552 17.8507 32.9552 17.8507 32.2687C17.8507 31.5821 17.8507 31.5821 17.8507 31.5821L17.1642 30.8955L16.4776 30.209C16.4776 29.5224 16.4776 29.5224 16.4776 29.5224C17.1642 29.5224 17.1642 29.5224 17.1642 29.5224C17.1642 29.5224 17.1642 29.5224 17.8507 30.209C17.8507 30.209 17.8507 30.209 18.5373 30.8955L19.2239 31.5821C19.2239 31.5821 19.9104 31.5821 19.9104 32.2687H20.597H21.2836H21.9701H22.6567H23.3433H24.0299H24.7164H25.403C25.403 32.2687 26.0896 32.2687 26.0896 31.5821H26.7761C26.7761 31.5821 27.4627 31.5821 27.4627 30.8955C27.4627 30.209 27.4627 30.209 28.1493 29.5224ZM17.8507 23.3433C21.9701 23.3433 24.7164 23.3433 28.8358 23.3433C29.5224 23.3433 29.5224 24.0299 29.5224 24.0299C29.5224 24.7164 28.8358 25.403 28.8358 25.403C28.1493 26.7761 27.4627 26.7761 26.0896 26.7761C25.403 26.7761 24.0299 26.7761 22.6567 26.7761C21.9701 26.7761 20.597 26.7761 19.2239 26.7761C18.5373 26.7761 17.1642 26.7761 17.1642 25.403C17.1642 24.7164 16.4776 24.7164 16.4776 24.0299C16.4776 24.0299 17.1642 23.3433 17.8507 23.3433ZM34.3284 24.0299C34.3284 24.7164 34.3284 25.403 34.3284 26.0896C34.3284 26.7761 34.3284 27.4627 33.6418 27.4627C32.9552 27.4627 31.5821 27.4627 30.8955 27.4627C30.209 27.4627 30.209 27.4627 30.209 26.7761C30.8955 26.0896 30.8955 25.403 31.5821 24.7164C32.2687 24.0299 32.2687 23.3433 33.6418 23.3433C33.6418 23.3433 34.3284 22.6567 34.3284 24.0299ZM14.4179 11.6716H21.9701H24.0299H31.5821C32.2687 11.6716 32.2687 12.3582 32.2687 12.3582C32.9552 14.4179 32.9552 15.791 32.9552 17.8507C32.9552 18.5373 32.9552 18.5373 32.2687 18.5373H24.0299H21.9701H13.0448C12.3582 18.5373 12.3582 17.8507 12.3582 17.8507C12.3582 15.791 13.0448 13.7313 13.0448 12.3582C13.7313 12.3582 13.7313 11.6716 14.4179 11.6716Z"/>
</svg>
