<svg width="24" height="24" viewBox="0 0 24 24" fill="333333" xmlns="http://www.w3.org/2000/svg">
<path d="M11.4888 5.90315C12.2066 5.90315 12.8347 6.17233 13.2834 6.64341C13.7545 7.09205 14.0461 7.74258 14.0461 8.43798C14.0461 9.13337 13.7545 9.78391 13.3058 10.2325C12.8347 10.7036 12.2066 10.9728 11.4888 10.9728C10.7934 10.9728 10.1653 10.7036 9.69424 10.2325L9.6718 10.2101C9.22316 9.76147 8.95397 9.13337 8.95397 8.43798C8.95397 7.74258 9.24559 7.09205 9.69424 6.64341C10.1653 6.17233 10.7934 5.90315 11.4888 5.90315ZM11.1972 19.9232C10.1653 18.6895 8.34831 16.1098 7.02481 13.6198C6.10509 11.8925 5.43213 10.1877 5.43213 8.97635C5.43213 7.31637 6.10509 5.79099 7.20427 4.69182C8.30344 3.59264 9.82883 2.91968 11.4888 2.91968C13.1712 2.91968 14.6966 3.59264 15.7733 4.69182C16.8725 5.79099 17.5679 7.31637 17.5679 8.97635C17.5679 10.1877 16.8725 11.8925 15.9528 13.6198C14.6517 16.1098 12.8123 18.6895 11.7804 19.9232C11.6458 20.1027 11.4215 20.1251 11.2645 19.9905C11.2421 19.9681 11.2196 19.9457 11.1972 19.9232ZM7.69778 13.2609C8.88668 15.4817 10.4569 17.7697 11.4888 19.0932C12.5207 17.7697 14.1134 15.4817 15.2798 13.2609C16.1547 11.6233 16.8052 10.0531 16.8052 8.97635C16.8052 7.51826 16.1996 6.19477 15.235 5.23019C14.2928 4.2656 12.9693 3.68237 11.4888 3.68237C10.0307 3.68237 8.70722 4.2656 7.74264 5.23019C6.77806 6.19477 6.19482 7.51826 6.19482 8.97635C6.19482 10.0531 6.82292 11.6233 7.69778 13.2609ZM12.7674 7.18178C12.431 6.8453 11.9823 6.64341 11.4888 6.64341C10.9953 6.64341 10.5467 6.8453 10.2326 7.18178C9.91856 7.49583 9.71667 7.94447 9.71667 8.43798C9.71667 8.93149 9.89612 9.3577 10.2102 9.69418H10.2326C10.5467 10.0307 10.9953 10.2325 11.4888 10.2325C11.9823 10.2325 12.431 10.0307 12.7674 9.69418C13.0815 9.38013 13.2834 8.93149 13.2834 8.43798C13.2834 7.94447 13.0815 7.49583 12.7674 7.18178Z"/>
</svg>
