<svg width="56" height="56" viewBox="0 0 56 56" fill="none" xmlns="http://www.w3.org/2000/svg">
<circle cx="27.5" cy="28.5" r="20.5" stroke="#333333" stroke-width="2"/>
<path d="M26.874 20.006C23.948 20.006 22.122 21.722 22.012 24.56H23.904C24.014 22.47 25.07 21.634 26.896 21.634C28.722 21.634 29.712 22.91 29.712 24.252C29.712 25.858 28.898 26.54 27.71 27.486C26.258 28.652 25.598 29.29 25.598 31.226V31.842H27.49V31.226C27.49 29.796 27.864 29.488 28.92 28.674C30.46 27.42 31.604 26.562 31.604 24.252C31.604 21.678 29.734 20.006 26.874 20.006ZM27.688 36V33.448H25.4V36H27.688Z" fill="#333333"/>
</svg>
