<svg width="56" height="56" viewBox="0 0 56 56" fill="none" xmlns="http://www.w3.org/2000/svg">
<path d="M55.4899 53.0373L41.1796 38.7267C44.723 34.618 46.8751 29.2764 46.8751 23.4379C46.8751 10.5124 36.3597 0 23.4376 0C10.5154 0 0 10.5155 0 23.4379C0 36.3602 10.5154 46.8758 23.4376 46.8758C29.276 46.8758 34.6175 44.7236 38.7262 41.1801L53.0365 55.4907C53.375 55.8292 53.8191 56 54.2632 56C54.7073 56 55.1514 55.8292 55.4899 55.4907C56.17 54.8137 56.17 53.7143 55.4899 53.0373ZM23.4376 43.4037C12.4284 43.4037 3.472 34.4472 3.472 23.4379C3.472 12.4286 12.4284 3.47205 23.4376 3.47205C34.4467 3.47205 43.4031 12.4286 43.4031 23.4379C43.4031 34.4472 34.4467 43.4037 23.4376 43.4037Z" fill="#C1C1C1"/>
</svg>
