<svg width="24" height="24" viewBox="0 0 24 24" fill="none" xmlns="http://www.w3.org/2000/svg">
<path d="M19.7469 5H14.8363H12.8382H11.2295H9.38382H4.25306C3.5588 5 3 5.5588 3 6.25306V15.3293C3 16.0235 3.5588 16.5823 4.25306 16.5823H11.5005V18.0894H8.07996C7.80903 18.0724 7.57197 18.2756 7.55503 18.5635C7.5381 18.8344 7.7413 19.0715 8.02916 19.0884C8.0461 19.0884 8.07996 19.0884 8.0969 19.0884H15.937C16.2079 19.1054 16.445 18.9022 16.4619 18.6143C16.4788 18.3434 16.2756 18.1063 15.9878 18.0894C15.9708 18.0894 15.937 18.0894 15.92 18.0894H12.4995V16.5823H19.7469C20.4412 16.5823 21 16.0235 21 15.3293V6.25306C21 5.5588 20.4412 5 19.7469 5ZM20.0009 6.25306V15.3293C20.0009 15.4647 19.8824 15.5663 19.7469 15.5663H4.25306C4.11759 15.5663 3.99906 15.4478 3.99906 15.3123V6.25306C3.99906 6.11759 4.11759 6.01599 4.25306 6.01599H19.7469C19.8824 6.01599 20.0009 6.11759 20.0009 6.25306Z"/>
</svg>
