<svg width="32" height="32" viewBox="0 0 32 32" fill="none" xmlns="http://www.w3.org/2000/svg">
<path fill-rule="evenodd" clip-rule="evenodd" d="M16 10.75C14.7574 10.75 13.75 11.7574 13.75 13C13.75 14.2426 14.7574 15.25 16 15.25C17.2426 15.25 18.25 14.2426 18.25 13C18.25 11.7574 17.2426 10.75 16 10.75ZM12.25 13C12.25 10.9289 13.9289 9.25 16 9.25C18.0711 9.25 19.75 10.9289 19.75 13C19.75 15.0711 18.0711 16.75 16 16.75C13.9289 16.75 12.25 15.0711 12.25 13ZM10.3804 19.2205C11.0886 18.591 12.0321 18.25 13 18.25H19C19.9679 18.25 20.9114 18.591 21.6196 19.2205C22.3307 19.8526 22.75 20.7301 22.75 21.6667V23C22.75 23.4142 22.4142 23.75 22 23.75C21.5858 23.75 21.25 23.4142 21.25 23V21.6667C21.25 21.1888 21.0372 20.7097 20.623 20.3416C20.206 19.9709 19.6234 19.75 19 19.75H13C12.3766 19.75 11.794 19.9709 11.377 20.3416C10.9628 20.7097 10.75 21.1888 10.75 21.6667V23C10.75 23.4142 10.4142 23.75 10 23.75C9.58579 23.75 9.25 23.4142 9.25 23V21.6667C9.25 20.7301 9.66933 19.8526 10.3804 19.2205Z" fill="#333333"/>
</svg>
