<svg width="40" height="40" viewBox="0 0 40 40" fill="none" xmlns="http://www.w3.org/2000/svg">
<path d="M36.2125 11.3761C36.4441 10.5963 36.2125 10 35.1008 10H31.3951C30.4687 10 30.0054 10.5046 29.7738 11.055C29.7738 11.055 27.8747 15.6422 25.188 18.578C24.3079 19.4495 23.9373 19.7248 23.4741 19.7248C23.2425 19.7248 22.9183 19.4495 22.9183 18.6697V11.3761C22.9183 10.4587 22.6403 10 21.8529 10H15.97C15.3678 10 15.0436 10.4128 15.0436 10.8257C15.0436 11.6972 16.3869 11.9266 16.5259 14.4037V19.8165C16.5259 21.0092 16.2943 21.2385 15.8311 21.2385C14.5804 21.2385 11.5232 16.6514 9.6703 11.422C9.29973 10.4128 8.92916 10 8.00273 10H4.297C3.23161 10 3 10.5046 3 11.055C3 12.0183 4.25068 16.8807 8.88283 23.2569C11.9401 27.6147 16.2943 30 20.2316 30C22.594 30 22.8719 29.4954 22.8719 28.578V25.2752C22.8719 24.2202 23.1035 23.9908 23.8447 23.9908C24.4005 23.9908 25.327 24.2661 27.5504 26.3761C30.0518 28.8532 30.4687 30 31.9046 30H35.6104C36.6758 30 37.1853 29.4954 36.9074 28.4404C36.5831 27.3853 35.3787 25.9174 33.7575 24.1284C32.8774 23.1193 31.5804 22.0183 31.2098 21.4679C30.654 20.7798 30.7929 20.4587 31.2098 19.8165C31.2098 19.8165 35.7493 13.4862 36.2125 11.3761Z"/>
</svg>
