<svg width="24" height="24" viewBox="0 0 24 24" fill="none" xmlns="http://www.w3.org/2000/svg">
<path d="M14.961 13.1224C13.9671 12.3342 12.6819 11.9058 11.311 11.9058C9.94015 11.9058 8.65496 12.3342 7.66108 13.1224C7.5754 13.1909 7.50685 13.3109 7.48972 13.4309C7.47258 13.5508 7.50685 13.6708 7.5754 13.7736C7.66108 13.8764 7.79816 13.9449 7.93525 13.9449C8.03807 13.9449 8.14088 13.9107 8.20942 13.8421C9.04908 13.1909 10.1286 12.814 11.2939 12.814C12.4591 12.814 13.5387 13.1738 14.3783 13.8421C14.4469 13.9107 14.5497 13.9449 14.6525 13.9449C14.8067 13.9449 14.9438 13.8764 15.0124 13.7736C15.0809 13.6879 15.1152 13.5508 15.098 13.4309C15.1152 13.3109 15.0466 13.2081 14.961 13.1224Z" fill="#222222"/>
<path d="M11.3116 15.093C10.2321 15.093 9.35815 15.9669 9.35815 17.0465C9.35815 18.1261 10.2321 19 11.3116 19C12.3912 19 13.2651 18.1261 13.2651 17.0465C13.2651 15.9669 12.3912 15.093 11.3116 15.093ZM11.3116 18.0747C10.729 18.0747 10.2835 17.612 10.2835 17.0465C10.2835 16.481 10.7462 16.0184 11.3116 16.0184C11.8771 16.0184 12.3398 16.481 12.3398 17.0465C12.3398 17.612 11.8943 18.0747 11.3116 18.0747Z" fill="#222222"/>
<path d="M17.2055 10.5177C15.6119 9.23255 13.5727 8.54712 11.3108 8.54712C9.04885 8.54712 7.00969 9.23255 5.41605 10.5177C5.31324 10.5863 5.24469 10.7062 5.21042 10.8262C5.19329 10.9633 5.22756 11.0832 5.2961 11.186C5.38178 11.2889 5.51887 11.3574 5.65595 11.3574C5.7759 11.3574 5.89586 11.306 5.9644 11.2374C7.38668 10.0893 9.23735 9.47246 11.2765 9.47246C13.3157 9.47246 15.1664 10.0722 16.5886 11.2203C16.6743 11.306 16.7943 11.3403 16.9142 11.3403C17.0513 11.3403 17.1884 11.2717 17.2741 11.1689C17.3597 11.0661 17.3769 10.9461 17.3597 10.8091C17.3769 10.6891 17.2912 10.5863 17.2055 10.5177Z" fill="#222222"/>
<path d="M19.6051 8.01591C19.588 7.89596 19.5194 7.77601 19.4338 7.70747C17.1204 5.95961 14.2416 5 11.3114 5C8.38112 5 5.48516 5.95961 3.17182 7.70747C3.08614 7.77601 3.0176 7.89596 3.00046 8.01591C2.98332 8.13586 3.0176 8.25582 3.08614 8.35863C3.17182 8.46145 3.30891 8.52999 3.46313 8.52999C3.56594 8.52999 3.66876 8.49572 3.7373 8.44431C5.87929 6.8164 8.56961 5.92534 11.3114 5.92534C14.0531 5.92534 16.7263 6.8164 18.8854 8.44431C18.9539 8.49572 19.0568 8.52999 19.1596 8.52999C19.3138 8.52999 19.4509 8.46145 19.5366 8.35863C19.588 8.25582 19.6222 8.13586 19.6051 8.01591Z" fill="#222222"/>
</svg>
