<svg width="40" height="40" viewBox="0 0 40 40" fill="none" xmlns="http://www.w3.org/2000/svg">
<path d="M35.6108 12.9696C35.6108 12.9696 35.2216 10.6696 34.4 9.725C33.1892 8.41071 31.8054 8.41071 31.2 8.41071C26.7892 8 20 8 20 8C20 8 13.2108 8 8.8 8.36964C8.19459 8.36964 6.81081 8.36964 5.6 9.68393C4.60541 10.6286 4.38919 12.9286 4.38919 12.9286C4.38919 12.9286 4 15.5982 4 18.2679V20.7321C4 23.4018 4.38919 26.0714 4.38919 26.0714C4.38919 26.0714 4.77838 28.3714 5.6 29.3161C6.81081 30.6304 8.41081 30.6304 9.18919 30.6304C11.6108 30.8357 20 30.8357 20 30.8357C20 30.8357 26.7892 30.8357 31.2 30.4661C31.8054 30.4661 33.1892 30.4661 34.4 29.1518C35.3946 28.2071 35.6108 25.9071 35.6108 25.9071C35.6108 25.9071 36 23.2375 36 20.5679V18.2679C36 15.5982 35.6108 12.9696 35.6108 12.9696ZM16.0216 25.1268V13.7089L26.0108 19.4179L16.0216 25.1268Z" fill="#333333"/>
</svg>
